<?xml version="1.0" encoding="UTF-8" standalone="no"?>
<!DOCTYPE svg PUBLIC "-//W3C//DTD SVG 1.1//EN"
 "http://www.w3.org/Graphics/SVG/1.1/DTD/svg11.dtd">
<!-- Generated by graphviz version 12.2.1 (20241206.2353)
 -->
<!-- Title: DFA Pages: 1 -->
<svg width="725pt" height="353pt"
 viewBox="0.00 0.00 724.75 352.50" xmlns="http://www.w3.org/2000/svg" xmlns:xlink="http://www.w3.org/1999/xlink">
<g id="graph0" class="graph" transform="scale(1 1) rotate(0) translate(4 348.5)">
<title>DFA</title>
<polygon fill="white" stroke="none" points="-4,4 -4,-348.5 720.75,-348.5 720.75,4 -4,4"/>
<!-- start -->
<g id="node1" class="node">
<title>start</title>
</g>
<!-- 0 -->
<g id="node2" class="node">
<title>0</title>
<ellipse fill="none" stroke="black" cx="109" cy="-211" rx="18" ry="18"/>
<text text-anchor="middle" x="109" y="-205.95" font-family="Times,serif" font-size="14.00">0</text>
</g>
<!-- start&#45;&gt;0 -->
<g id="edge1" class="edge">
<title>start&#45;&gt;0</title>
<path fill="none" stroke="black" d="M53.75,-211C61.85,-211 70.85,-211 79.16,-211"/>
<polygon fill="black" stroke="black" points="79.12,-214.5 89.12,-211 79.12,-207.5 79.12,-214.5"/>
</g>
<!-- 1 -->
<g id="node4" class="node">
<title>1</title>
<ellipse fill="none" stroke="black" cx="187" cy="-249" rx="18" ry="18"/>
<text text-anchor="middle" x="187" y="-243.95" font-family="Times,serif" font-size="14.00">1</text>
</g>
<!-- 0&#45;&gt;1 -->
<g id="edge2" class="edge">
<title>0&#45;&gt;1</title>
<path fill="none" stroke="black" d="M125.38,-218.69C135.41,-223.7 148.74,-230.37 160.35,-236.18"/>
<polygon fill="black" stroke="black" points="158.52,-239.17 169.03,-240.51 161.65,-232.91 158.52,-239.17"/>
<text text-anchor="middle" x="148" y="-234.34" font-family="Times,serif" font-size="14.00">a</text>
</g>
<!-- 2 -->
<g id="node5" class="node">
<title>2</title>
<ellipse fill="none" stroke="black" cx="269.75" cy="-193" rx="18" ry="18"/>
<text text-anchor="middle" x="269.75" y="-187.95" font-family="Times,serif" font-size="14.00">2</text>
</g>
<!-- 0&#45;&gt;2 -->
<g id="edge3" class="edge">
<title>0&#45;&gt;2</title>
<path fill="none" stroke="black" d="M127.29,-209.04C154.49,-205.96 207.54,-199.94 240.38,-196.22"/>
<polygon fill="black" stroke="black" points="240.43,-199.73 249.98,-195.13 239.65,-192.78 240.43,-199.73"/>
<text text-anchor="middle" x="187" y="-207.28" font-family="Times,serif" font-size="14.00">b</text>
</g>
<!-- 7 -->
<g id="node3" class="node">
<title>7</title>
<ellipse fill="none" stroke="black" cx="442.5" cy="-279" rx="18" ry="18"/>
<text text-anchor="middle" x="442.5" y="-273.95" font-family="Times,serif" font-size="14.00">7</text>
</g>
<!-- 4 -->
<g id="node6" class="node">
<title>4</title>
<ellipse fill="none" stroke="black" cx="355.75" cy="-223" rx="18" ry="18"/>
<ellipse fill="none" stroke="black" cx="355.75" cy="-223" rx="22" ry="22"/>
<text text-anchor="middle" x="355.75" y="-217.95" font-family="Times,serif" font-size="14.00">4</text>
</g>
<!-- 7&#45;&gt;4 -->
<g id="edge15" class="edge">
<title>7&#45;&gt;4</title>
<path fill="none" stroke="black" d="M424.43,-279.79C415.38,-279.49 404.37,-277.93 395.75,-273 386.82,-267.89 379.21,-259.85 373.15,-251.7"/>
<polygon fill="black" stroke="black" points="376.11,-249.83 367.61,-243.51 370.31,-253.75 376.11,-249.83"/>
<text text-anchor="middle" x="399.12" y="-278.84" font-family="Times,serif" font-size="14.00">a</text>
</g>
<!-- 5 -->
<g id="node8" class="node">
<title>5</title>
<ellipse fill="none" stroke="black" cx="698.75" cy="-156" rx="18" ry="18"/>
<text text-anchor="middle" x="698.75" y="-150.95" font-family="Times,serif" font-size="14.00">5</text>
</g>
<!-- 7&#45;&gt;5 -->
<g id="edge16" class="edge">
<title>7&#45;&gt;5</title>
<path fill="none" stroke="black" d="M460.32,-274.35C481.87,-268.13 520.14,-256.24 551.25,-242 603.41,-218.13 613.38,-206.2 662.75,-177 666.04,-175.05 669.51,-172.99 672.92,-170.95"/>
<polygon fill="black" stroke="black" points="674.71,-173.96 681.49,-165.81 671.11,-167.95 674.71,-173.96"/>
<text text-anchor="middle" x="572.62" y="-236.38" font-family="Times,serif" font-size="14.00">b</text>
</g>
<!-- 3 -->
<g id="node7" class="node">
<title>3</title>
<ellipse fill="none" stroke="black" cx="269.75" cy="-251" rx="18" ry="18"/>
<ellipse fill="none" stroke="black" cx="269.75" cy="-251" rx="22" ry="22"/>
<text text-anchor="middle" x="269.75" y="-245.95" font-family="Times,serif" font-size="14.00">3</text>
</g>
<!-- 1&#45;&gt;3 -->
<g id="edge4" class="edge">
<title>1&#45;&gt;3</title>
<path fill="none" stroke="black" d="M205.12,-249.42C214.07,-249.65 225.33,-249.92 235.88,-250.19"/>
<polygon fill="black" stroke="black" points="235.73,-253.68 245.82,-250.43 235.91,-246.69 235.73,-253.68"/>
<text text-anchor="middle" x="226.38" y="-253.2" font-family="Times,serif" font-size="14.00">b</text>
</g>
<!-- 2&#45;&gt;4 -->
<g id="edge5" class="edge">
<title>2&#45;&gt;4</title>
<path fill="none" stroke="black" d="M286.95,-198.78C297.49,-202.55 311.58,-207.58 324.18,-212.08"/>
<polygon fill="black" stroke="black" points="322.73,-215.28 333.32,-215.35 325.08,-208.69 322.73,-215.28"/>
<text text-anchor="middle" x="312.75" y="-212.1" font-family="Times,serif" font-size="14.00">a</text>
</g>
<!-- 2&#45;&gt;5 -->
<g id="edge6" class="edge">
<title>2&#45;&gt;5</title>
<path fill="none" stroke="black" d="M270.49,-174.84C270.83,-126.8 278.92,0 354.75,0 354.75,0 354.75,0 617,0 673.29,0 690.39,-81.1 695.55,-126.35"/>
<polygon fill="black" stroke="black" points="692.06,-126.69 696.53,-136.29 699.03,-126 692.06,-126.69"/>
<text text-anchor="middle" x="485.88" y="-3.2" font-family="Times,serif" font-size="14.00">b</text>
</g>
<!-- 4&#45;&gt;7 -->
<g id="edge10" class="edge">
<title>4&#45;&gt;7</title>
<path fill="none" stroke="black" d="M374.72,-234.88C387.23,-243.14 404.05,-254.26 417.68,-263.26"/>
<polygon fill="black" stroke="black" points="415.4,-265.95 425.67,-268.54 419.25,-260.11 415.4,-265.95"/>
<text text-anchor="middle" x="399.12" y="-255.88" font-family="Times,serif" font-size="14.00">b</text>
</g>
<!-- 6 -->
<g id="node11" class="node">
<title>6</title>
<ellipse fill="none" stroke="black" cx="442.5" cy="-156" rx="18" ry="18"/>
<ellipse fill="none" stroke="black" cx="442.5" cy="-156" rx="22" ry="22"/>
<text text-anchor="middle" x="442.5" y="-150.95" font-family="Times,serif" font-size="14.00">6</text>
</g>
<!-- 4&#45;&gt;6 -->
<g id="edge9" class="edge">
<title>4&#45;&gt;6</title>
<path fill="none" stroke="black" d="M373.49,-209.76C385.49,-200.28 401.87,-187.33 415.55,-176.52"/>
<polygon fill="black" stroke="black" points="417.64,-179.32 423.31,-170.38 413.3,-173.83 417.64,-179.32"/>
<text text-anchor="middle" x="399.12" y="-194.71" font-family="Times,serif" font-size="14.00">a</text>
</g>
<!-- 3&#45;&gt;4 -->
<g id="edge7" class="edge">
<title>3&#45;&gt;4</title>
<path fill="none" stroke="black" d="M291.08,-244.22C300.81,-240.98 312.68,-237.02 323.52,-233.41"/>
<polygon fill="black" stroke="black" points="324.5,-236.77 332.88,-230.29 322.28,-230.13 324.5,-236.77"/>
<text text-anchor="middle" x="312.75" y="-241.04" font-family="Times,serif" font-size="14.00">a</text>
</g>
<!-- 3&#45;&gt;5 -->
<g id="edge8" class="edge">
<title>3&#45;&gt;5</title>
<path fill="none" stroke="black" d="M280.96,-270.43C294.5,-293.24 320.72,-328 354.75,-328 354.75,-328 354.75,-328 617,-328 679.17,-328 693.57,-234.78 696.84,-185.6"/>
<polygon fill="black" stroke="black" points="700.31,-186.09 697.36,-175.92 693.32,-185.72 700.31,-186.09"/>
<text text-anchor="middle" x="485.88" y="-331.2" font-family="Times,serif" font-size="14.00">b</text>
</g>
<!-- 5&#45;&gt;4 -->
<g id="edge11" class="edge">
<title>5&#45;&gt;4</title>
<path fill="none" stroke="black" d="M693.53,-138.33C684.93,-107.23 662.25,-46 617,-46 441.5,-46 441.5,-46 441.5,-46 378.6,-46 362.35,-138.05 358.17,-189.39"/>
<polygon fill="black" stroke="black" points="354.7,-188.86 357.5,-199.07 361.68,-189.34 354.7,-188.86"/>
<text text-anchor="middle" x="529.25" y="-49.2" font-family="Times,serif" font-size="14.00">a</text>
</g>
<!-- 5&#45;&gt;5 -->
<g id="edge12" class="edge">
<title>5&#45;&gt;5</title>
<path fill="none" stroke="black" d="M691.77,-173.04C690.35,-182.86 692.67,-192 698.75,-192 702.26,-192 704.52,-188.94 705.53,-184.47"/>
<polygon fill="black" stroke="black" points="709.03,-184.61 705.7,-174.55 702.03,-184.49 709.03,-184.61"/>
<text text-anchor="middle" x="698.75" y="-195.2" font-family="Times,serif" font-size="14.00">b</text>
</g>
<!-- 8 -->
<g id="node9" class="node">
<title>8</title>
<ellipse fill="none" stroke="black" cx="529.25" cy="-156" rx="18" ry="18"/>
<ellipse fill="none" stroke="black" cx="529.25" cy="-156" rx="22" ry="22"/>
<text text-anchor="middle" x="529.25" y="-150.95" font-family="Times,serif" font-size="14.00">8</text>
</g>
<!-- 8&#45;&gt;8 -->
<g id="edge17" class="edge">
<title>8&#45;&gt;8</title>
<path fill="none" stroke="black" d="M521.32,-176.99C520.34,-187.09 522.98,-196 529.25,-196 532.97,-196 535.42,-192.86 536.58,-188.19"/>
<polygon fill="black" stroke="black" points="540.06,-188.68 537.1,-178.5 533.07,-188.3 540.06,-188.68"/>
<text text-anchor="middle" x="529.25" y="-199.2" font-family="Times,serif" font-size="14.00">a</text>
</g>
<!-- 9 -->
<g id="node10" class="node">
<title>9</title>
<ellipse fill="none" stroke="black" cx="616" cy="-156" rx="18" ry="18"/>
<ellipse fill="none" stroke="black" cx="616" cy="-156" rx="22" ry="22"/>
<text text-anchor="middle" x="616" y="-150.95" font-family="Times,serif" font-size="14.00">9</text>
</g>
<!-- 8&#45;&gt;9 -->
<g id="edge18" class="edge">
<title>8&#45;&gt;9</title>
<path fill="none" stroke="black" d="M551.64,-156C560.87,-156 571.88,-156 582.12,-156"/>
<polygon fill="black" stroke="black" points="582.11,-159.5 592.11,-156 582.11,-152.5 582.11,-159.5"/>
<text text-anchor="middle" x="572.62" y="-159.2" font-family="Times,serif" font-size="14.00">b</text>
</g>
<!-- 9&#45;&gt;4 -->
<g id="edge19" class="edge">
<title>9&#45;&gt;4</title>
<path fill="none" stroke="black" d="M603.45,-174.49C592.3,-190.43 573.81,-212.36 551.25,-222 497.95,-244.78 428.68,-237.46 388.82,-230.17"/>
<polygon fill="black" stroke="black" points="389.66,-226.76 379.17,-228.28 388.31,-233.63 389.66,-226.76"/>
<text text-anchor="middle" x="485.88" y="-239.91" font-family="Times,serif" font-size="14.00">a</text>
</g>
<!-- 9&#45;&gt;5 -->
<g id="edge20" class="edge">
<title>9&#45;&gt;5</title>
<path fill="none" stroke="black" d="M638.22,-156C647.69,-156 658.99,-156 669.19,-156"/>
<polygon fill="black" stroke="black" points="668.97,-159.5 678.97,-156 668.97,-152.5 668.97,-159.5"/>
<text text-anchor="middle" x="659.38" y="-159.2" font-family="Times,serif" font-size="14.00">b</text>
</g>
<!-- 6&#45;&gt;8 -->
<g id="edge13" class="edge">
<title>6&#45;&gt;8</title>
<path fill="none" stroke="black" d="M464.89,-156C474.12,-156 485.13,-156 495.37,-156"/>
<polygon fill="black" stroke="black" points="495.36,-159.5 505.36,-156 495.36,-152.5 495.36,-159.5"/>
<text text-anchor="middle" x="485.88" y="-159.2" font-family="Times,serif" font-size="14.00">a</text>
</g>
<!-- 6&#45;&gt;9 -->
<g id="edge14" class="edge">
<title>6&#45;&gt;9</title>
<path fill="none" stroke="black" d="M458.1,-140.74C470.08,-129.4 488.12,-114.84 507.25,-108.5 525.81,-102.35 532.69,-102.35 551.25,-108.5 566.34,-113.5 580.76,-123.62 592.06,-133.24"/>
<polygon fill="black" stroke="black" points="589.5,-135.65 599.27,-139.73 594.18,-130.44 589.5,-135.65"/>
<text text-anchor="middle" x="529.25" y="-111.7" font-family="Times,serif" font-size="14.00">b</text>
</g>
</g>
</svg>
