<?xml version="1.0" encoding="UTF-8" standalone="no"?>
<!DOCTYPE svg PUBLIC "-//W3C//DTD SVG 1.1//EN"
 "http://www.w3.org/Graphics/SVG/1.1/DTD/svg11.dtd">
<!-- Generated by graphviz version 12.2.1 (20241206.2353)
 -->
<!-- Title: LR_Automaton Pages: 1 -->
<svg width="1462pt" height="563pt"
 viewBox="0.00 0.00 1462.00 562.99" xmlns="http://www.w3.org/2000/svg" xmlns:xlink="http://www.w3.org/1999/xlink">
<g id="graph0" class="graph" transform="scale(1 1) rotate(0) translate(4 558.99)">
<title>LR_Automaton</title>
<polygon fill="white" stroke="none" points="-4,4 -4,-558.99 1458,-558.99 1458,4 -4,4"/>
<!-- 0 -->
<g id="node1" class="node">
<title>0</title>
<polygon fill="none" stroke="black" points="102.25,-530.49 0,-530.49 0,-456.49 102.25,-456.49 102.25,-530.49"/>
<text text-anchor="middle" x="51.12" y="-513.19" font-family="Times,serif" font-size="14.00">0</text>
<text text-anchor="middle" x="51.12" y="-496.69" font-family="Times,serif" font-size="14.00">• S</text>
<text text-anchor="middle" x="51.12" y="-480.19" font-family="Times,serif" font-size="14.00">S → • b T a a T</text>
<text text-anchor="middle" x="51.12" y="-463.69" font-family="Times,serif" font-size="14.00">S → • a b</text>
</g>
<!-- 1 -->
<g id="node2" class="node">
<title>1</title>
<polygon fill="none" stroke="black" points="1196.88,-398.99 1142.88,-398.99 1142.88,-357.99 1196.88,-357.99 1196.88,-398.99"/>
<polygon fill="none" stroke="black" points="1200.88,-402.99 1138.88,-402.99 1138.88,-353.99 1200.88,-353.99 1200.88,-402.99"/>
<text text-anchor="middle" x="1169.88" y="-381.69" font-family="Times,serif" font-size="14.00">1</text>
<text text-anchor="middle" x="1169.88" y="-365.19" font-family="Times,serif" font-size="14.00">S •</text>
</g>
<!-- 0&#45;&gt;1 -->
<g id="edge1" class="edge">
<title>0&#45;&gt;1</title>
<path fill="none" stroke="black" d="M102.55,-517.57C129.41,-528.27 163.37,-538.49 195.12,-538.49 195.12,-538.49 195.12,-538.49 849.62,-538.49 890.93,-538.49 902.86,-539.08 941.5,-524.49 980.52,-509.76 1075.04,-445.05 1129.13,-406.9"/>
<polygon fill="black" stroke="black" points="1131.04,-409.84 1137.18,-401.21 1126.99,-404.12 1131.04,-409.84"/>
<text text-anchor="middle" x="631.12" y="-541.69" font-family="Times,serif" font-size="14.00">S</text>
</g>
<!-- 2 -->
<g id="node3" class="node">
<title>2</title>
<polygon fill="none" stroke="black" points="247.25,-248.74 145,-248.74 145,-158.24 247.25,-158.24 247.25,-248.74"/>
<text text-anchor="middle" x="196.12" y="-231.44" font-family="Times,serif" font-size="14.00">2</text>
<text text-anchor="middle" x="196.12" y="-214.94" font-family="Times,serif" font-size="14.00">S → b • T a a T</text>
<text text-anchor="middle" x="196.12" y="-198.44" font-family="Times,serif" font-size="14.00">T → • a S T</text>
<text text-anchor="middle" x="196.12" y="-181.94" font-family="Times,serif" font-size="14.00">T → • b T</text>
<text text-anchor="middle" x="196.12" y="-165.44" font-family="Times,serif" font-size="14.00">T → • a</text>
</g>
<!-- 0&#45;&gt;2 -->
<g id="edge2" class="edge">
<title>0&#45;&gt;2</title>
<path fill="none" stroke="black" d="M70.53,-456.17C95.22,-406.1 139.27,-316.76 167.83,-258.84"/>
<polygon fill="black" stroke="black" points="170.85,-260.64 172.13,-250.12 164.57,-257.54 170.85,-260.64"/>
<text text-anchor="middle" x="123.62" y="-351.69" font-family="Times,serif" font-size="14.00">b</text>
</g>
<!-- 3 -->
<g id="node4" class="node">
<title>3</title>
<polygon fill="none" stroke="black" points="941.5,-326.99 870.75,-326.99 870.75,-285.99 941.5,-285.99 941.5,-326.99"/>
<text text-anchor="middle" x="906.12" y="-309.69" font-family="Times,serif" font-size="14.00">3</text>
<text text-anchor="middle" x="906.12" y="-293.19" font-family="Times,serif" font-size="14.00">S → a • b</text>
</g>
<!-- 0&#45;&gt;3 -->
<g id="edge3" class="edge">
<title>0&#45;&gt;3</title>
<path fill="none" stroke="black" d="M102.42,-493.49C129.83,-493.49 164.34,-493.49 195.12,-493.49 195.12,-493.49 195.12,-493.49 415.75,-493.49 592.95,-493.49 783.88,-385.18 865.01,-333.42"/>
<polygon fill="black" stroke="black" points="866.57,-336.58 873.08,-328.22 862.77,-330.69 866.57,-336.58"/>
<text text-anchor="middle" x="486.88" y="-496.08" font-family="Times,serif" font-size="14.00">a</text>
</g>
<!-- 4 -->
<g id="node5" class="node">
<title>4</title>
<polygon fill="none" stroke="black" points="393.75,-341.99 291.5,-341.99 291.5,-300.99 393.75,-300.99 393.75,-341.99"/>
<text text-anchor="middle" x="342.62" y="-324.69" font-family="Times,serif" font-size="14.00">4</text>
<text text-anchor="middle" x="342.62" y="-308.19" font-family="Times,serif" font-size="14.00">S → b T • a a T</text>
</g>
<!-- 2&#45;&gt;4 -->
<g id="edge4" class="edge">
<title>2&#45;&gt;4</title>
<path fill="none" stroke="black" d="M247.66,-244.76C267.35,-260.83 289.4,-278.84 307.19,-293.37"/>
<polygon fill="black" stroke="black" points="304.94,-296.05 314.9,-299.67 309.37,-290.63 304.94,-296.05"/>
<text text-anchor="middle" x="269.38" y="-265.69" font-family="Times,serif" font-size="14.00">T</text>
</g>
<!-- 5 -->
<g id="node6" class="node">
<title>5</title>
<polygon fill="none" stroke="black" points="826.5,-248.74 724.25,-248.74 724.25,-158.24 826.5,-158.24 826.5,-248.74"/>
<text text-anchor="middle" x="775.38" y="-231.44" font-family="Times,serif" font-size="14.00">5</text>
<text text-anchor="middle" x="775.38" y="-214.94" font-family="Times,serif" font-size="14.00">T → a • S T</text>
<text text-anchor="middle" x="775.38" y="-198.44" font-family="Times,serif" font-size="14.00">T → a •</text>
<text text-anchor="middle" x="775.38" y="-181.94" font-family="Times,serif" font-size="14.00">S → • b T a a T</text>
<text text-anchor="middle" x="775.38" y="-165.44" font-family="Times,serif" font-size="14.00">S → • a b</text>
</g>
<!-- 2&#45;&gt;5 -->
<g id="edge5" class="edge">
<title>2&#45;&gt;5</title>
<path fill="none" stroke="black" d="M247.61,-203.49C275.36,-203.49 310.39,-203.49 341.62,-203.49 341.62,-203.49 341.62,-203.49 632.12,-203.49 658.57,-203.49 687.79,-203.49 712.83,-203.49"/>
<polygon fill="black" stroke="black" points="712.5,-206.99 722.5,-203.49 712.5,-199.99 712.5,-206.99"/>
<text text-anchor="middle" x="486.88" y="-206.69" font-family="Times,serif" font-size="14.00">a</text>
</g>
<!-- 6 -->
<g id="node7" class="node">
<title>6</title>
<polygon fill="none" stroke="black" points="1338.25,-172.74 1255.5,-172.74 1255.5,-82.24 1338.25,-82.24 1338.25,-172.74"/>
<text text-anchor="middle" x="1296.88" y="-155.44" font-family="Times,serif" font-size="14.00">6</text>
<text text-anchor="middle" x="1296.88" y="-138.94" font-family="Times,serif" font-size="14.00">T → b • T</text>
<text text-anchor="middle" x="1296.88" y="-122.44" font-family="Times,serif" font-size="14.00">T → • a S T</text>
<text text-anchor="middle" x="1296.88" y="-105.94" font-family="Times,serif" font-size="14.00">T → • b T</text>
<text text-anchor="middle" x="1296.88" y="-89.44" font-family="Times,serif" font-size="14.00">T → • a</text>
</g>
<!-- 2&#45;&gt;6 -->
<g id="edge6" class="edge">
<title>2&#45;&gt;6</title>
<path fill="none" stroke="black" d="M208.55,-158.07C226.29,-99.61 266.51,-5.49 341.62,-5.49 341.62,-5.49 341.62,-5.49 964.25,-5.49 1029.64,-5.49 1048.04,-2.14 1110.5,-21.49 1159.03,-36.53 1167.2,-50.18 1211.25,-75.49 1222.47,-81.94 1234.38,-89.07 1245.61,-95.93"/>
<polygon fill="black" stroke="black" points="1243.63,-98.83 1253.99,-101.08 1247.3,-92.86 1243.63,-98.83"/>
<text text-anchor="middle" x="775.38" y="-8.69" font-family="Times,serif" font-size="14.00">b</text>
</g>
<!-- 7 -->
<g id="node8" class="node">
<title>7</title>
<polygon fill="none" stroke="black" points="1071.12,-333.99 1000.38,-333.99 1000.38,-292.99 1071.12,-292.99 1071.12,-333.99"/>
<text text-anchor="middle" x="1035.75" y="-316.69" font-family="Times,serif" font-size="14.00">7</text>
<text text-anchor="middle" x="1035.75" y="-300.19" font-family="Times,serif" font-size="14.00">S → a b •</text>
</g>
<!-- 3&#45;&gt;7 -->
<g id="edge7" class="edge">
<title>3&#45;&gt;7</title>
<path fill="none" stroke="black" d="M942,-308.4C956.35,-309.19 973.18,-310.11 988.53,-310.96"/>
<polygon fill="black" stroke="black" points="988.23,-314.44 998.41,-311.5 988.61,-307.45 988.23,-314.44"/>
<text text-anchor="middle" x="963.25" y="-312.77" font-family="Times,serif" font-size="14.00">b</text>
</g>
<!-- 8 -->
<g id="node9" class="node">
<title>8</title>
<polygon fill="none" stroke="black" points="538,-341.99 435.75,-341.99 435.75,-300.99 538,-300.99 538,-341.99"/>
<text text-anchor="middle" x="486.88" y="-324.69" font-family="Times,serif" font-size="14.00">8</text>
<text text-anchor="middle" x="486.88" y="-308.19" font-family="Times,serif" font-size="14.00">S → b T a • a T</text>
</g>
<!-- 4&#45;&gt;8 -->
<g id="edge8" class="edge">
<title>4&#45;&gt;8</title>
<path fill="none" stroke="black" d="M394.18,-321.49C403.93,-321.49 414.24,-321.49 424.29,-321.49"/>
<polygon fill="black" stroke="black" points="423.97,-324.99 433.97,-321.49 423.97,-317.99 423.97,-324.99"/>
<text text-anchor="middle" x="414.75" y="-324.69" font-family="Times,serif" font-size="14.00">a</text>
</g>
<!-- 5&#45;&gt;2 -->
<g id="edge9" class="edge">
<title>5&#45;&gt;2</title>
<path fill="none" stroke="black" d="M724.03,-174.82C697.54,-162.33 664.01,-150.49 632.12,-150.49 341.62,-150.49 341.62,-150.49 341.62,-150.49 313.1,-150.49 283.24,-159.71 258.12,-170.45"/>
<polygon fill="black" stroke="black" points="256.74,-167.23 249.04,-174.51 259.6,-173.62 256.74,-167.23"/>
<text text-anchor="middle" x="486.88" y="-153.69" font-family="Times,serif" font-size="14.00">b</text>
</g>
<!-- 5&#45;&gt;3 -->
<g id="edge10" class="edge">
<title>5&#45;&gt;3</title>
<path fill="none" stroke="black" d="M826.84,-245.24C832.77,-250.07 838.76,-254.91 844.5,-259.49 852.36,-265.77 860.87,-272.44 868.95,-278.71"/>
<polygon fill="black" stroke="black" points="866.59,-281.31 876.64,-284.67 870.88,-275.78 866.59,-281.31"/>
<text text-anchor="middle" x="848.62" y="-269.18" font-family="Times,serif" font-size="14.00">a</text>
</g>
<!-- 5&#45;&gt;4 -->
<g id="edge12" class="edge">
<title>5&#45;&gt;4</title>
<path fill="none" stroke="black" d="M723.97,-215.94C657.63,-232.5 537.51,-263.12 435.75,-292.49 425.81,-295.36 415.31,-298.53 405.1,-301.69"/>
<polygon fill="black" stroke="black" points="404.13,-298.33 395.62,-304.65 406.21,-305.01 404.13,-298.33"/>
<text text-anchor="middle" x="559" y="-262.15" font-family="Times,serif" font-size="14.00">ε</text>
</g>
<!-- 9 -->
<g id="node10" class="node">
<title>9</title>
<polygon fill="none" stroke="black" points="1211.25,-245.74 1128.5,-245.74 1128.5,-155.24 1211.25,-155.24 1211.25,-245.74"/>
<text text-anchor="middle" x="1169.88" y="-228.44" font-family="Times,serif" font-size="14.00">9</text>
<text text-anchor="middle" x="1169.88" y="-211.94" font-family="Times,serif" font-size="14.00">T → a S • T</text>
<text text-anchor="middle" x="1169.88" y="-195.44" font-family="Times,serif" font-size="14.00">T → • a S T</text>
<text text-anchor="middle" x="1169.88" y="-178.94" font-family="Times,serif" font-size="14.00">T → • b T</text>
<text text-anchor="middle" x="1169.88" y="-162.44" font-family="Times,serif" font-size="14.00">T → • a</text>
</g>
<!-- 5&#45;&gt;9 -->
<g id="edge11" class="edge">
<title>5&#45;&gt;9</title>
<path fill="none" stroke="black" d="M826.72,-194.92C863.4,-189.12 914.37,-182 959.5,-178.99 1013.27,-175.41 1074.58,-183.09 1116.89,-190.24"/>
<polygon fill="black" stroke="black" points="1116.08,-193.66 1126.54,-191.93 1117.29,-186.76 1116.08,-193.66"/>
<text text-anchor="middle" x="963.25" y="-182.19" font-family="Times,serif" font-size="14.00">S</text>
</g>
<!-- 10 -->
<g id="node11" class="node">
<title>10</title>
<polygon fill="none" stroke="black" points="1454,-316.99 1382.5,-316.99 1382.5,-275.99 1454,-275.99 1454,-316.99"/>
<text text-anchor="middle" x="1418.25" y="-299.69" font-family="Times,serif" font-size="14.00">10</text>
<text text-anchor="middle" x="1418.25" y="-283.19" font-family="Times,serif" font-size="14.00">T → b T •</text>
</g>
<!-- 5&#45;&gt;10 -->
<g id="edge13" class="edge">
<title>5&#45;&gt;10</title>
<path fill="none" stroke="black" d="M798.11,-157.77C813.92,-130.6 838.26,-98.9 870.75,-85.49 1062.88,-6.2 1172.4,51.79 1338.25,-73.49 1398.5,-119 1412.96,-214.15 1416.32,-264.17"/>
<polygon fill="black" stroke="black" points="1412.82,-264.27 1416.86,-274.06 1419.81,-263.89 1412.82,-264.27"/>
<text text-anchor="middle" x="1107.5" y="-7.09" font-family="Times,serif" font-size="14.00">ε</text>
</g>
<!-- 12 -->
<g id="node13" class="node">
<title>12</title>
<polygon fill="none" stroke="black" points="1337.88,-316.99 1255.88,-316.99 1255.88,-275.99 1337.88,-275.99 1337.88,-316.99"/>
<text text-anchor="middle" x="1296.88" y="-299.69" font-family="Times,serif" font-size="14.00">12</text>
<text text-anchor="middle" x="1296.88" y="-283.19" font-family="Times,serif" font-size="14.00">T → a S T •</text>
</g>
<!-- 5&#45;&gt;12 -->
<g id="edge14" class="edge">
<title>5&#45;&gt;12</title>
<path fill="none" stroke="black" d="M826.85,-213.39C863.6,-220.54 914.6,-230.33 959.5,-238.49 1060.15,-256.79 1178.02,-276.78 1244.12,-287.86"/>
<polygon fill="black" stroke="black" points="1243.51,-291.31 1253.95,-289.51 1244.67,-284.41 1243.51,-291.31"/>
<text text-anchor="middle" x="1035.75" y="-263.85" font-family="Times,serif" font-size="14.00">ε</text>
</g>
<!-- 13 -->
<g id="node14" class="node">
<title>13</title>
<polygon fill="none" stroke="black" points="1086.5,-395.99 985,-395.99 985,-354.99 1086.5,-354.99 1086.5,-395.99"/>
<text text-anchor="middle" x="1035.75" y="-378.69" font-family="Times,serif" font-size="14.00">13</text>
<text text-anchor="middle" x="1035.75" y="-362.19" font-family="Times,serif" font-size="14.00">S → b T a a T •</text>
</g>
<!-- 5&#45;&gt;13 -->
<g id="edge15" class="edge">
<title>5&#45;&gt;13</title>
<path fill="none" stroke="black" d="M797.75,-248.92C813.83,-278.23 838.6,-314.79 870.75,-336.49 901.02,-356.92 940.75,-366.7 973.52,-371.35"/>
<polygon fill="black" stroke="black" points="972.93,-374.81 983.3,-372.61 973.82,-367.86 972.93,-374.81"/>
<text text-anchor="middle" x="906.12" y="-368.43" font-family="Times,serif" font-size="14.00">ε</text>
</g>
<!-- 6&#45;&gt;5 -->
<g id="edge16" class="edge">
<title>6&#45;&gt;5</title>
<path fill="none" stroke="black" d="M1255.15,-108.49C1231.16,-98.99 1199.91,-89.49 1170.88,-89.49 905.12,-89.49 905.12,-89.49 905.12,-89.49 865.89,-89.49 833.01,-119.53 810.3,-148.76"/>
<polygon fill="black" stroke="black" points="807.66,-146.46 804.49,-156.57 813.27,-150.64 807.66,-146.46"/>
<text text-anchor="middle" x="1035.75" y="-92.69" font-family="Times,serif" font-size="14.00">a</text>
</g>
<!-- 6&#45;&gt;6 -->
<g id="edge17" class="edge">
<title>6&#45;&gt;6</title>
<path fill="none" stroke="black" d="M1285.26,-172.98C1286.31,-183.24 1290.18,-190.74 1296.88,-190.74 1300.75,-190.74 1303.67,-188.23 1305.66,-184.13"/>
<polygon fill="black" stroke="black" points="1309.05,-185 1308.12,-174.44 1302.26,-183.27 1309.05,-185"/>
<text text-anchor="middle" x="1296.88" y="-193.94" font-family="Times,serif" font-size="14.00">b</text>
</g>
<!-- 6&#45;&gt;10 -->
<g id="edge18" class="edge">
<title>6&#45;&gt;10</title>
<path fill="none" stroke="black" d="M1330.18,-173.22C1351.12,-202.87 1377.8,-240.64 1396.07,-266.51"/>
<polygon fill="black" stroke="black" points="1393.14,-268.42 1401.76,-274.57 1398.85,-264.38 1393.14,-268.42"/>
<text text-anchor="middle" x="1360.38" y="-220.26" font-family="Times,serif" font-size="14.00">T</text>
</g>
<!-- 7&#45;&gt;1 -->
<g id="edge19" class="edge">
<title>7&#45;&gt;1</title>
<path fill="none" stroke="black" d="M1070.73,-292.53C1083.99,-287.17 1098.8,-284.91 1110.5,-292.99 1129.08,-305.82 1115.96,-321.72 1128.5,-340.49 1129.57,-342.09 1130.71,-343.66 1131.92,-345.22"/>
<polygon fill="black" stroke="black" points="1129.16,-347.38 1138.35,-352.65 1134.45,-342.8 1129.16,-347.38"/>
<text text-anchor="middle" x="1107.5" y="-296.19" font-family="Times,serif" font-size="14.00">ε</text>
</g>
<!-- 7&#45;&gt;9 -->
<g id="edge20" class="edge">
<title>7&#45;&gt;9</title>
<path fill="none" stroke="black" d="M1068.9,-292.67C1074.88,-288.48 1080.98,-283.97 1086.5,-279.49 1097.78,-270.33 1109.35,-259.94 1120.13,-249.77"/>
<polygon fill="black" stroke="black" points="1122.29,-252.55 1127.1,-243.11 1117.45,-247.49 1122.29,-252.55"/>
<text text-anchor="middle" x="1107.5" y="-266.44" font-family="Times,serif" font-size="14.00">ε</text>
</g>
<!-- 11 -->
<g id="node12" class="node">
<title>11</title>
<polygon fill="none" stroke="black" points="682.25,-366.74 580,-366.74 580,-276.24 682.25,-276.24 682.25,-366.74"/>
<text text-anchor="middle" x="631.12" y="-349.44" font-family="Times,serif" font-size="14.00">11</text>
<text text-anchor="middle" x="631.12" y="-332.94" font-family="Times,serif" font-size="14.00">S → b T a a • T</text>
<text text-anchor="middle" x="631.12" y="-316.44" font-family="Times,serif" font-size="14.00">T → • a S T</text>
<text text-anchor="middle" x="631.12" y="-299.94" font-family="Times,serif" font-size="14.00">T → • b T</text>
<text text-anchor="middle" x="631.12" y="-283.44" font-family="Times,serif" font-size="14.00">T → • a</text>
</g>
<!-- 8&#45;&gt;11 -->
<g id="edge21" class="edge">
<title>8&#45;&gt;11</title>
<path fill="none" stroke="black" d="M538.43,-321.49C548.18,-321.49 558.49,-321.49 568.54,-321.49"/>
<polygon fill="black" stroke="black" points="568.22,-324.99 578.22,-321.49 568.22,-317.99 568.22,-324.99"/>
<text text-anchor="middle" x="559" y="-324.69" font-family="Times,serif" font-size="14.00">a</text>
</g>
<!-- 9&#45;&gt;5 -->
<g id="edge22" class="edge">
<title>9&#45;&gt;5</title>
<path fill="none" stroke="black" d="M1128.18,-186.15C1115.01,-181.91 1100.25,-177.59 1086.5,-174.49 1030.97,-161.99 1016.12,-152.15 959.5,-157.99 919.42,-162.12 909.87,-166.83 870.75,-176.49 859.95,-179.16 848.53,-182.22 837.5,-185.3"/>
<polygon fill="black" stroke="black" points="836.77,-181.87 828.1,-187.96 838.67,-188.6 836.77,-181.87"/>
<text text-anchor="middle" x="963.25" y="-161.19" font-family="Times,serif" font-size="14.00">a</text>
</g>
<!-- 9&#45;&gt;6 -->
<g id="edge23" class="edge">
<title>9&#45;&gt;6</title>
<path fill="none" stroke="black" d="M1211.46,-176.79C1222.27,-170.48 1234.07,-163.58 1245.34,-157"/>
<polygon fill="black" stroke="black" points="1246.89,-160.15 1253.76,-152.09 1243.36,-154.11 1246.89,-160.15"/>
<text text-anchor="middle" x="1233.38" y="-169.38" font-family="Times,serif" font-size="14.00">b</text>
</g>
<!-- 9&#45;&gt;12 -->
<g id="edge24" class="edge">
<title>9&#45;&gt;12</title>
<path fill="none" stroke="black" d="M1211.46,-224.79C1220.24,-230.48 1229.34,-236.72 1237.5,-242.99 1247.42,-250.6 1257.65,-259.56 1266.73,-267.94"/>
<polygon fill="black" stroke="black" points="1264.25,-270.41 1273.93,-274.71 1269.04,-265.31 1264.25,-270.41"/>
<text text-anchor="middle" x="1233.38" y="-246.19" font-family="Times,serif" font-size="14.00">T</text>
</g>
<!-- 10&#45;&gt;4 -->
<g id="edge25" class="edge">
<title>10&#45;&gt;4</title>
<path fill="none" stroke="black" d="M1415.33,-317.11C1409.16,-370.2 1384.79,-507.49 1297.88,-507.49 1106.5,-507.49 1106.5,-507.49 1106.5,-507.49 802.58,-507.49 720.3,-481.24 435.75,-374.49 417.72,-367.73 399.09,-357.67 383.33,-348.13"/>
<polygon fill="black" stroke="black" points="385.55,-345.39 375.21,-343.09 381.86,-351.34 385.55,-345.39"/>
<text text-anchor="middle" x="906.12" y="-506.77" font-family="Times,serif" font-size="14.00">ε</text>
</g>
<!-- 10&#45;&gt;10 -->
<g id="edge26" class="edge">
<title>10&#45;&gt;10</title>
<path fill="none" stroke="black" d="M1407.57,-317.48C1406.55,-326.87 1410.11,-334.99 1418.25,-334.99 1422.7,-334.99 1425.78,-332.56 1427.5,-328.82"/>
<polygon fill="black" stroke="black" points="1430.96,-329.34 1428.74,-318.98 1424.01,-328.46 1430.96,-329.34"/>
<text text-anchor="middle" x="1418.25" y="-338.19" font-family="Times,serif" font-size="14.00">ε</text>
</g>
<!-- 10&#45;&gt;12 -->
<g id="edge27" class="edge">
<title>10&#45;&gt;12</title>
<path fill="none" stroke="black" d="M1382.22,-282.37C1376.39,-280.55 1370.34,-278.98 1364.5,-277.99 1359.51,-277.14 1354.35,-277.07 1349.21,-277.55"/>
<polygon fill="black" stroke="black" points="1348.88,-274.06 1339.59,-279.14 1350.02,-280.97 1348.88,-274.06"/>
<text text-anchor="middle" x="1360.38" y="-281.19" font-family="Times,serif" font-size="14.00">ε</text>
</g>
<!-- 10&#45;&gt;13 -->
<g id="edge28" class="edge">
<title>10&#45;&gt;13</title>
<path fill="none" stroke="black" d="M1395.06,-317.43C1379.91,-330.96 1358.9,-348.26 1338.25,-360.49 1285.77,-391.57 1271.09,-400.71 1211.25,-412.49 1175.16,-419.59 1164.6,-419.5 1128.5,-412.49 1115.33,-409.93 1101.65,-405.49 1089,-400.55"/>
<polygon fill="black" stroke="black" points="1090.64,-397.44 1080.06,-396.89 1087.98,-403.92 1090.64,-397.44"/>
<text text-anchor="middle" x="1233.38" y="-411.68" font-family="Times,serif" font-size="14.00">ε</text>
</g>
<!-- 11&#45;&gt;5 -->
<g id="edge29" class="edge">
<title>11&#45;&gt;5</title>
<path fill="none" stroke="black" d="M682.68,-279.56C693.26,-270.77 704.51,-261.44 715.38,-252.43"/>
<polygon fill="black" stroke="black" points="717.36,-255.33 722.82,-246.26 712.89,-249.95 717.36,-255.33"/>
<text text-anchor="middle" x="703.25" y="-265.69" font-family="Times,serif" font-size="14.00">a</text>
</g>
<!-- 11&#45;&gt;6 -->
<g id="edge30" class="edge">
<title>11&#45;&gt;6</title>
<path fill="none" stroke="black" d="M682.67,-317.98C728.08,-313.78 796.12,-304.85 852.75,-286.49 854.79,-285.83 1126.44,-147.11 1128.5,-146.49 1166.09,-135.22 1210.25,-130.54 1243.78,-128.64"/>
<polygon fill="black" stroke="black" points="1243.84,-132.15 1253.65,-128.16 1243.49,-125.15 1243.84,-132.15"/>
<text text-anchor="middle" x="963.25" y="-235.48" font-family="Times,serif" font-size="14.00">b</text>
</g>
<!-- 11&#45;&gt;13 -->
<g id="edge31" class="edge">
<title>11&#45;&gt;13</title>
<path fill="none" stroke="black" d="M682.55,-339.16C730.31,-354.9 804.41,-376.75 870.75,-385.49 901.92,-389.6 910.08,-386.72 941.5,-385.49 951.78,-385.09 962.66,-384.28 973.22,-383.28"/>
<polygon fill="black" stroke="black" points="973.41,-386.78 983,-382.29 972.7,-379.81 973.41,-386.78"/>
<text text-anchor="middle" x="848.62" y="-385.66" font-family="Times,serif" font-size="14.00">T</text>
</g>
<!-- 12&#45;&gt;4 -->
<g id="edge32" class="edge">
<title>12&#45;&gt;4</title>
<path fill="none" stroke="black" d="M1281.33,-317.44C1258.52,-350.14 1216.4,-409.87 1211.25,-412.49 1178.46,-429.16 1165.27,-413.14 1128.5,-412.49 884.21,-408.19 822.16,-407.96 580,-375.49 515.58,-366.85 498.88,-366.93 435.75,-351.49 425.67,-349.03 415.1,-346.01 404.86,-342.84"/>
<polygon fill="black" stroke="black" points="405.95,-339.52 395.36,-339.83 403.83,-346.19 405.95,-339.52"/>
<text text-anchor="middle" x="848.62" y="-407.66" font-family="Times,serif" font-size="14.00">ε</text>
</g>
<!-- 12&#45;&gt;10 -->
<g id="edge33" class="edge">
<title>12&#45;&gt;10</title>
<path fill="none" stroke="black" d="M1338.29,-296.49C1348.72,-296.49 1360.03,-296.49 1370.75,-296.49"/>
<polygon fill="black" stroke="black" points="1370.56,-299.99 1380.56,-296.49 1370.56,-292.99 1370.56,-299.99"/>
<text text-anchor="middle" x="1360.38" y="-299.69" font-family="Times,serif" font-size="14.00">ε</text>
</g>
<!-- 12&#45;&gt;12 -->
<g id="edge34" class="edge">
<title>12&#45;&gt;12</title>
<path fill="none" stroke="black" d="M1285.15,-317.48C1284.04,-326.87 1287.95,-334.99 1296.88,-334.99 1301.76,-334.99 1305.14,-332.56 1307.02,-328.82"/>
<polygon fill="black" stroke="black" points="1310.48,-329.36 1308.39,-318.98 1303.54,-328.4 1310.48,-329.36"/>
<text text-anchor="middle" x="1296.88" y="-338.19" font-family="Times,serif" font-size="14.00">ε</text>
</g>
<!-- 12&#45;&gt;13 -->
<g id="edge35" class="edge">
<title>12&#45;&gt;13</title>
<path fill="none" stroke="black" d="M1255.49,-298.51C1220.4,-301.59 1168.99,-309.37 1128.5,-328.99 1119,-333.6 1119.48,-338.93 1110.5,-344.49 1106.2,-347.15 1101.63,-349.69 1096.95,-352.07"/>
<polygon fill="black" stroke="black" points="1095.47,-348.9 1087.98,-356.4 1098.51,-355.21 1095.47,-348.9"/>
<text text-anchor="middle" x="1169.88" y="-332.19" font-family="Times,serif" font-size="14.00">ε</text>
</g>
<!-- 13&#45;&gt;1 -->
<g id="edge36" class="edge">
<title>13&#45;&gt;1</title>
<path fill="none" stroke="black" d="M1086.7,-376.62C1100.02,-376.93 1114.26,-377.25 1127.09,-377.54"/>
<polygon fill="black" stroke="black" points="1126.81,-381.04 1136.89,-377.76 1126.97,-374.04 1126.81,-381.04"/>
<text text-anchor="middle" x="1107.5" y="-380.28" font-family="Times,serif" font-size="14.00">ε</text>
</g>
<!-- 13&#45;&gt;9 -->
<g id="edge37" class="edge">
<title>13&#45;&gt;9</title>
<path fill="none" stroke="black" d="M1073.05,-354.51C1077.8,-351.1 1082.42,-347.4 1086.5,-343.49 1111.93,-319.13 1131.93,-285.2 1145.85,-256.5"/>
<polygon fill="black" stroke="black" points="1148.97,-258.1 1150.06,-247.57 1142.63,-255.12 1148.97,-258.1"/>
<text text-anchor="middle" x="1107.5" y="-326.86" font-family="Times,serif" font-size="14.00">ε</text>
</g>
</g>
</svg>
