<?xml version="1.0" encoding="UTF-8" standalone="no"?>
<!DOCTYPE svg PUBLIC "-//W3C//DTD SVG 1.1//EN"
 "http://www.w3.org/Graphics/SVG/1.1/DTD/svg11.dtd">
<!-- Generated by graphviz version 12.2.1 (20241206.2353)
 -->
<!-- Title: DFA Pages: 1 -->
<svg width="725pt" height="342pt"
 viewBox="0.00 0.00 724.75 341.50" xmlns="http://www.w3.org/2000/svg" xmlns:xlink="http://www.w3.org/1999/xlink">
<g id="graph0" class="graph" transform="scale(1 1) rotate(0) translate(4 337.5)">
<title>DFA</title>
<polygon fill="white" stroke="none" points="-4,4 -4,-337.5 720.75,-337.5 720.75,4 -4,4"/>
<!-- start -->
<g id="node1" class="node">
<title>start</title>
</g>
<!-- 0 -->
<g id="node2" class="node">
<title>0</title>
<ellipse fill="none" stroke="black" cx="109" cy="-173" rx="18" ry="18"/>
<text text-anchor="middle" x="109" y="-167.95" font-family="Times,serif" font-size="14.00">0</text>
</g>
<!-- start&#45;&gt;0 -->
<g id="edge1" class="edge">
<title>start&#45;&gt;0</title>
<path fill="none" stroke="black" d="M53.75,-173C61.85,-173 70.85,-173 79.16,-173"/>
<polygon fill="black" stroke="black" points="79.12,-176.5 89.12,-173 79.12,-169.5 79.12,-176.5"/>
</g>
<!-- 1 -->
<g id="node8" class="node">
<title>1</title>
<ellipse fill="none" stroke="black" cx="187" cy="-211" rx="18" ry="18"/>
<text text-anchor="middle" x="187" y="-205.95" font-family="Times,serif" font-size="14.00">1</text>
</g>
<!-- 0&#45;&gt;1 -->
<g id="edge2" class="edge">
<title>0&#45;&gt;1</title>
<path fill="none" stroke="black" d="M125.38,-180.69C135.41,-185.7 148.74,-192.37 160.35,-198.18"/>
<polygon fill="black" stroke="black" points="158.52,-201.17 169.03,-202.51 161.65,-194.91 158.52,-201.17"/>
<text text-anchor="middle" x="148" y="-196.34" font-family="Times,serif" font-size="14.00">a</text>
</g>
<!-- 2 -->
<g id="node9" class="node">
<title>2</title>
<ellipse fill="none" stroke="black" cx="269.75" cy="-155" rx="18" ry="18"/>
<text text-anchor="middle" x="269.75" y="-149.95" font-family="Times,serif" font-size="14.00">2</text>
</g>
<!-- 0&#45;&gt;2 -->
<g id="edge3" class="edge">
<title>0&#45;&gt;2</title>
<path fill="none" stroke="black" d="M127.29,-171.04C154.49,-167.96 207.54,-161.94 240.38,-158.22"/>
<polygon fill="black" stroke="black" points="240.43,-161.73 249.98,-157.13 239.65,-154.78 240.43,-161.73"/>
<text text-anchor="middle" x="187" y="-169.28" font-family="Times,serif" font-size="14.00">b</text>
</g>
<!-- 3 -->
<g id="node3" class="node">
<title>3</title>
<ellipse fill="none" stroke="black" cx="269.75" cy="-213" rx="18" ry="18"/>
<ellipse fill="none" stroke="black" cx="269.75" cy="-213" rx="22" ry="22"/>
<text text-anchor="middle" x="269.75" y="-207.95" font-family="Times,serif" font-size="14.00">3</text>
</g>
<!-- 4 -->
<g id="node4" class="node">
<title>4</title>
<ellipse fill="none" stroke="black" cx="355.75" cy="-185" rx="18" ry="18"/>
<ellipse fill="none" stroke="black" cx="355.75" cy="-185" rx="22" ry="22"/>
<text text-anchor="middle" x="355.75" y="-179.95" font-family="Times,serif" font-size="14.00">4</text>
</g>
<!-- 3&#45;&gt;4 -->
<g id="edge7" class="edge">
<title>3&#45;&gt;4</title>
<path fill="none" stroke="black" d="M291.08,-206.22C300.81,-202.98 312.68,-199.02 323.52,-195.41"/>
<polygon fill="black" stroke="black" points="324.5,-198.77 332.88,-192.29 322.28,-192.13 324.5,-198.77"/>
<text text-anchor="middle" x="312.75" y="-203.04" font-family="Times,serif" font-size="14.00">a</text>
</g>
<!-- 5 -->
<g id="node10" class="node">
<title>5</title>
<ellipse fill="none" stroke="black" cx="698.75" cy="-181" rx="18" ry="18"/>
<text text-anchor="middle" x="698.75" y="-175.95" font-family="Times,serif" font-size="14.00">5</text>
</g>
<!-- 3&#45;&gt;5 -->
<g id="edge8" class="edge">
<title>3&#45;&gt;5</title>
<path fill="none" stroke="black" d="M277.16,-234.05C287.87,-264.44 312.51,-317 354.75,-317 354.75,-317 354.75,-317 617,-317 666.25,-317 686.13,-250.23 693.62,-210.26"/>
<polygon fill="black" stroke="black" points="697.04,-211 695.27,-200.55 690.14,-209.82 697.04,-211"/>
<text text-anchor="middle" x="485.88" y="-320.2" font-family="Times,serif" font-size="14.00">b</text>
</g>
<!-- 6 -->
<g id="node5" class="node">
<title>6</title>
<ellipse fill="none" stroke="black" cx="442.5" cy="-176" rx="18" ry="18"/>
<ellipse fill="none" stroke="black" cx="442.5" cy="-176" rx="22" ry="22"/>
<text text-anchor="middle" x="442.5" y="-170.95" font-family="Times,serif" font-size="14.00">6</text>
</g>
<!-- 4&#45;&gt;6 -->
<g id="edge9" class="edge">
<title>4&#45;&gt;6</title>
<path fill="none" stroke="black" d="M377.7,-182.78C387.1,-181.78 398.41,-180.58 408.88,-179.46"/>
<polygon fill="black" stroke="black" points="409.12,-182.96 418.7,-178.42 408.38,-176 409.12,-182.96"/>
<text text-anchor="middle" x="399.12" y="-183.97" font-family="Times,serif" font-size="14.00">a</text>
</g>
<!-- 7 -->
<g id="node11" class="node">
<title>7</title>
<ellipse fill="none" stroke="black" cx="442.5" cy="-105" rx="18" ry="18"/>
<text text-anchor="middle" x="442.5" y="-99.95" font-family="Times,serif" font-size="14.00">7</text>
</g>
<!-- 4&#45;&gt;7 -->
<g id="edge10" class="edge">
<title>4&#45;&gt;7</title>
<path fill="none" stroke="black" d="M372.29,-170.33C385.88,-157.51 405.7,-138.79 420.66,-124.67"/>
<polygon fill="black" stroke="black" points="422.85,-127.42 427.72,-118.01 418.04,-122.33 422.85,-127.42"/>
<text text-anchor="middle" x="399.12" y="-150.6" font-family="Times,serif" font-size="14.00">b</text>
</g>
<!-- 8 -->
<g id="node6" class="node">
<title>8</title>
<ellipse fill="none" stroke="black" cx="529.25" cy="-88" rx="18" ry="18"/>
<ellipse fill="none" stroke="black" cx="529.25" cy="-88" rx="22" ry="22"/>
<text text-anchor="middle" x="529.25" y="-82.95" font-family="Times,serif" font-size="14.00">8</text>
</g>
<!-- 6&#45;&gt;8 -->
<g id="edge13" class="edge">
<title>6&#45;&gt;8</title>
<path fill="none" stroke="black" d="M458.26,-160.67C471.31,-147.13 490.54,-127.16 505.54,-111.58"/>
<polygon fill="black" stroke="black" points="507.91,-114.17 512.32,-104.54 502.86,-109.31 507.91,-114.17"/>
<text text-anchor="middle" x="485.88" y="-137.84" font-family="Times,serif" font-size="14.00">a</text>
</g>
<!-- 9 -->
<g id="node7" class="node">
<title>9</title>
<ellipse fill="none" stroke="black" cx="616" cy="-181" rx="18" ry="18"/>
<ellipse fill="none" stroke="black" cx="616" cy="-181" rx="22" ry="22"/>
<text text-anchor="middle" x="616" y="-175.95" font-family="Times,serif" font-size="14.00">9</text>
</g>
<!-- 6&#45;&gt;9 -->
<g id="edge14" class="edge">
<title>6&#45;&gt;9</title>
<path fill="none" stroke="black" d="M464.87,-176.62C494.35,-177.48 547.75,-179.04 582.27,-180.05"/>
<polygon fill="black" stroke="black" points="582.02,-183.54 592.11,-180.33 582.22,-176.54 582.02,-183.54"/>
<text text-anchor="middle" x="529.25" y="-182.28" font-family="Times,serif" font-size="14.00">b</text>
</g>
<!-- 8&#45;&gt;8 -->
<g id="edge17" class="edge">
<title>8&#45;&gt;8</title>
<path fill="none" stroke="black" d="M521.32,-108.99C520.34,-119.09 522.98,-128 529.25,-128 532.97,-128 535.42,-124.86 536.58,-120.19"/>
<polygon fill="black" stroke="black" points="540.06,-120.68 537.1,-110.5 533.07,-120.3 540.06,-120.68"/>
<text text-anchor="middle" x="529.25" y="-131.2" font-family="Times,serif" font-size="14.00">a</text>
</g>
<!-- 8&#45;&gt;9 -->
<g id="edge18" class="edge">
<title>8&#45;&gt;9</title>
<path fill="none" stroke="black" d="M544.63,-103.78C557.9,-118.34 577.8,-140.18 593.06,-156.92"/>
<polygon fill="black" stroke="black" points="590.21,-158.99 599.53,-164.03 595.38,-154.28 590.21,-158.99"/>
<text text-anchor="middle" x="572.62" y="-140.49" font-family="Times,serif" font-size="14.00">b</text>
</g>
<!-- 9&#45;&gt;4 -->
<g id="edge19" class="edge">
<title>9&#45;&gt;4</title>
<path fill="none" stroke="black" d="M594.86,-188.07C588.83,-190.09 582.17,-192.23 576,-194 509.34,-213.15 489.36,-215.23 420.5,-207 409.15,-205.64 397.17,-202.12 386.71,-198.28"/>
<polygon fill="black" stroke="black" points="388.05,-195.04 377.46,-194.63 385.48,-201.56 388.05,-195.04"/>
<text text-anchor="middle" x="485.88" y="-214.75" font-family="Times,serif" font-size="14.00">a</text>
</g>
<!-- 9&#45;&gt;5 -->
<g id="edge20" class="edge">
<title>9&#45;&gt;5</title>
<path fill="none" stroke="black" d="M638.22,-181C647.69,-181 658.99,-181 669.19,-181"/>
<polygon fill="black" stroke="black" points="668.97,-184.5 678.97,-181 668.97,-177.5 668.97,-184.5"/>
<text text-anchor="middle" x="659.38" y="-184.2" font-family="Times,serif" font-size="14.00">b</text>
</g>
<!-- 1&#45;&gt;3 -->
<g id="edge4" class="edge">
<title>1&#45;&gt;3</title>
<path fill="none" stroke="black" d="M205.12,-211.42C214.07,-211.65 225.33,-211.92 235.88,-212.19"/>
<polygon fill="black" stroke="black" points="235.73,-215.68 245.82,-212.43 235.91,-208.69 235.73,-215.68"/>
<text text-anchor="middle" x="226.38" y="-215.2" font-family="Times,serif" font-size="14.00">b</text>
</g>
<!-- 2&#45;&gt;4 -->
<g id="edge5" class="edge">
<title>2&#45;&gt;4</title>
<path fill="none" stroke="black" d="M286.95,-160.78C297.49,-164.55 311.58,-169.58 324.18,-174.08"/>
<polygon fill="black" stroke="black" points="322.73,-177.28 333.32,-177.35 325.08,-170.69 322.73,-177.28"/>
<text text-anchor="middle" x="312.75" y="-174.1" font-family="Times,serif" font-size="14.00">a</text>
</g>
<!-- 2&#45;&gt;5 -->
<g id="edge6" class="edge">
<title>2&#45;&gt;5</title>
<path fill="none" stroke="black" d="M272.16,-136.92C276.45,-96.03 293.08,0 354.75,0 354.75,0 354.75,0 617,0 682.46,0 695.22,-99.96 697.46,-151.31"/>
<polygon fill="black" stroke="black" points="693.96,-151.25 697.77,-161.14 700.95,-151.03 693.96,-151.25"/>
<text text-anchor="middle" x="485.88" y="-3.2" font-family="Times,serif" font-size="14.00">b</text>
</g>
<!-- 5&#45;&gt;4 -->
<g id="edge11" class="edge">
<title>5&#45;&gt;4</title>
<path fill="none" stroke="black" d="M691.75,-197.69C681.11,-223.96 656.29,-272 617,-272 441.5,-272 441.5,-272 441.5,-272 408.88,-272 384.74,-240.23 370.74,-215.09"/>
<polygon fill="black" stroke="black" points="373.98,-213.75 366.24,-206.52 367.79,-217 373.98,-213.75"/>
<text text-anchor="middle" x="529.25" y="-275.2" font-family="Times,serif" font-size="14.00">a</text>
</g>
<!-- 5&#45;&gt;5 -->
<g id="edge12" class="edge">
<title>5&#45;&gt;5</title>
<path fill="none" stroke="black" d="M691.77,-198.04C690.35,-207.86 692.67,-217 698.75,-217 702.26,-217 704.52,-213.94 705.53,-209.47"/>
<polygon fill="black" stroke="black" points="709.03,-209.61 705.7,-199.55 702.03,-209.49 709.03,-209.61"/>
<text text-anchor="middle" x="698.75" y="-220.2" font-family="Times,serif" font-size="14.00">b</text>
</g>
<!-- 7&#45;&gt;4 -->
<g id="edge15" class="edge">
<title>7&#45;&gt;4</title>
<path fill="none" stroke="black" d="M424.49,-108.68C415.23,-111.34 404.02,-115.69 395.75,-122.5 385.24,-131.15 376.73,-143.41 370.38,-154.79"/>
<polygon fill="black" stroke="black" points="367.35,-153.02 365.84,-163.51 373.56,-156.25 367.35,-153.02"/>
<text text-anchor="middle" x="399.12" y="-125.7" font-family="Times,serif" font-size="14.00">a</text>
</g>
<!-- 7&#45;&gt;5 -->
<g id="edge16" class="edge">
<title>7&#45;&gt;5</title>
<path fill="none" stroke="black" d="M455.25,-92.33C467.07,-80.6 486.49,-63.94 507.25,-57 525.8,-50.8 532.89,-50.27 551.25,-57 606.3,-77.17 654.89,-128.19 679.89,-158.13"/>
<polygon fill="black" stroke="black" points="677.16,-160.33 686.2,-165.87 682.59,-155.91 677.16,-160.33"/>
<text text-anchor="middle" x="572.62" y="-70.8" font-family="Times,serif" font-size="14.00">b</text>
</g>
</g>
</svg>
