<?xml version="1.0" encoding="UTF-8" standalone="no"?>
<!DOCTYPE svg PUBLIC "-//W3C//DTD SVG 1.1//EN"
 "http://www.w3.org/Graphics/SVG/1.1/DTD/svg11.dtd">
<!-- Generated by graphviz version 12.2.1 (20241206.2353)
 -->
<!-- Pages: 1 -->
<svg width="808pt" height="368pt"
 viewBox="0.00 0.00 808.48 367.50" xmlns="http://www.w3.org/2000/svg" xmlns:xlink="http://www.w3.org/1999/xlink">
<g id="graph0" class="graph" transform="scale(1 1) rotate(0) translate(4 363.5)">
<polygon fill="white" stroke="none" points="-4,4 -4,-363.5 804.48,-363.5 804.48,4 -4,4"/>
<!-- start -->
<g id="node1" class="node">
<title>start</title>
</g>
<!-- 0 -->
<g id="node2" class="node">
<title>0</title>
<ellipse fill="none" stroke="black" cx="109" cy="-18" rx="18" ry="18"/>
<text text-anchor="middle" x="109" y="-12.95" font-family="Times,serif" font-size="14.00">S</text>
</g>
<!-- start&#45;&gt;0 -->
<g id="edge1" class="edge">
<title>start&#45;&gt;0</title>
<path fill="none" stroke="black" d="M53.75,-18C61.85,-18 70.85,-18 79.16,-18"/>
<polygon fill="black" stroke="black" points="79.12,-21.5 89.12,-18 79.12,-14.5 79.12,-21.5"/>
</g>
<!-- 1 -->
<g id="node3" class="node">
<title>1</title>
<ellipse fill="none" stroke="black" cx="189.88" cy="-205" rx="20.13" ry="20.13"/>
<text text-anchor="middle" x="189.88" y="-199.95" font-family="Times,serif" font-size="14.00">b1</text>
</g>
<!-- 0&#45;&gt;1 -->
<g id="edge3" class="edge">
<title>0&#45;&gt;1</title>
<path fill="none" stroke="black" d="M117,-34.6C130.41,-66.39 159.89,-136.26 176.63,-175.95"/>
<polygon fill="black" stroke="black" points="173.39,-177.28 180.5,-185.13 179.84,-174.55 173.39,-177.28"/>
<text text-anchor="middle" x="148.38" y="-114.7" font-family="Times,serif" font-size="14.00">b</text>
</g>
<!-- 4 -->
<g id="node6" class="node">
<title>4</title>
<ellipse fill="none" stroke="black" cx="353.62" cy="-87" rx="19.62" ry="19.62"/>
<text text-anchor="middle" x="353.62" y="-81.95" font-family="Times,serif" font-size="14.00">a4</text>
</g>
<!-- 0&#45;&gt;4 -->
<g id="edge2" class="edge">
<title>0&#45;&gt;4</title>
<path fill="none" stroke="black" d="M126.68,-22.74C167.4,-34.32 272.32,-64.16 323.57,-78.74"/>
<polygon fill="black" stroke="black" points="322.49,-82.07 333.06,-81.44 324.4,-75.34 322.49,-82.07"/>
<text text-anchor="middle" x="231.39" y="-56.5" font-family="Times,serif" font-size="14.00">a</text>
</g>
<!-- 6 -->
<g id="node8" class="node">
<title>6</title>
<ellipse fill="none" stroke="black" cx="272.38" cy="-165" rx="19.62" ry="19.62"/>
<text text-anchor="middle" x="272.38" y="-159.95" font-family="Times,serif" font-size="14.00">a6</text>
</g>
<!-- 1&#45;&gt;6 -->
<g id="edge4" class="edge">
<title>1&#45;&gt;6</title>
<path fill="none" stroke="black" d="M201.93,-188.58C208.45,-180.36 217.49,-171.19 228.01,-166.5 232.15,-164.66 236.74,-163.6 241.34,-163.05"/>
<polygon fill="black" stroke="black" points="241.17,-166.56 251.03,-162.68 240.9,-159.57 241.17,-166.56"/>
<text text-anchor="middle" x="231.39" y="-169.7" font-family="Times,serif" font-size="14.00">a</text>
</g>
<!-- 7 -->
<g id="node9" class="node">
<title>7</title>
<ellipse fill="none" stroke="black" cx="780.35" cy="-168" rx="20.13" ry="20.13"/>
<text text-anchor="middle" x="780.35" y="-162.95" font-family="Times,serif" font-size="14.00">b7</text>
</g>
<!-- 1&#45;&gt;7 -->
<g id="edge6" class="edge">
<title>1&#45;&gt;7</title>
<path fill="none" stroke="black" d="M193.25,-225.07C198.99,-263.34 217.43,-343 271.38,-343 271.38,-343 271.38,-343 698.85,-343 761.23,-343 775.44,-250.08 778.56,-199.65"/>
<polygon fill="black" stroke="black" points="782.05,-200.09 779.04,-189.93 775.05,-199.74 782.05,-200.09"/>
<text text-anchor="middle" x="485.63" y="-346.2" font-family="Times,serif" font-size="14.00">b</text>
</g>
<!-- 8 -->
<g id="node10" class="node">
<title>8</title>
<ellipse fill="none" stroke="black" cx="530.62" cy="-188" rx="19.62" ry="19.62"/>
<ellipse fill="none" stroke="black" cx="530.62" cy="-188" rx="23.62" ry="23.62"/>
<text text-anchor="middle" x="530.62" y="-182.95" font-family="Times,serif" font-size="14.00">a8</text>
</g>
<!-- 1&#45;&gt;8 -->
<g id="edge5" class="edge">
<title>1&#45;&gt;8</title>
<path fill="none" stroke="black" d="M197.43,-223.82C208.23,-250.99 232.52,-298 271.38,-298 271.38,-298 271.38,-298 441.12,-298 463.29,-298 472.44,-298.74 489,-284 506.82,-268.13 517.06,-243.14 522.8,-222.64"/>
<polygon fill="black" stroke="black" points="526.19,-223.51 525.25,-212.96 519.4,-221.8 526.19,-223.51"/>
<text text-anchor="middle" x="353.62" y="-301.2" font-family="Times,serif" font-size="14.00">a</text>
</g>
<!-- 2 -->
<g id="node4" class="node">
<title>2</title>
<ellipse fill="none" stroke="black" cx="615.86" cy="-166" rx="19.62" ry="19.62"/>
<text text-anchor="middle" x="615.86" y="-160.95" font-family="Times,serif" font-size="14.00">a2</text>
</g>
<!-- 3 -->
<g id="node5" class="node">
<title>3</title>
<ellipse fill="none" stroke="black" cx="697.85" cy="-206" rx="19.62" ry="19.62"/>
<text text-anchor="middle" x="697.85" y="-200.95" font-family="Times,serif" font-size="14.00">a3</text>
</g>
<!-- 2&#45;&gt;3 -->
<g id="edge7" class="edge">
<title>2&#45;&gt;3</title>
<path fill="none" stroke="black" d="M633.82,-174.48C644.22,-179.68 657.76,-186.45 669.62,-192.38"/>
<polygon fill="black" stroke="black" points="668.05,-195.51 678.56,-196.85 671.18,-189.25 668.05,-195.51"/>
<text text-anchor="middle" x="656.85" y="-190.4" font-family="Times,serif" font-size="14.00">a</text>
</g>
<!-- 3&#45;&gt;6 -->
<g id="edge8" class="edge">
<title>3&#45;&gt;6</title>
<path fill="none" stroke="black" d="M691.18,-224.89C685.76,-239.27 676.03,-258.06 660.23,-267 600.78,-300.65 573.69,-269.79 507,-255 429.32,-237.77 343.27,-199.16 300.55,-178.56"/>
<polygon fill="black" stroke="black" points="302.29,-175.51 291.77,-174.28 299.23,-181.81 302.29,-175.51"/>
<text text-anchor="middle" x="485.63" y="-253.68" font-family="Times,serif" font-size="14.00">a</text>
</g>
<!-- 3&#45;&gt;7 -->
<g id="edge10" class="edge">
<title>3&#45;&gt;7</title>
<path fill="none" stroke="black" d="M715.92,-197.94C726.24,-193.07 739.64,-186.74 751.46,-181.16"/>
<polygon fill="black" stroke="black" points="752.83,-184.39 760.38,-176.96 749.84,-178.06 752.83,-184.39"/>
<text text-anchor="middle" x="738.84" y="-191.34" font-family="Times,serif" font-size="14.00">b</text>
</g>
<!-- 3&#45;&gt;8 -->
<g id="edge9" class="edge">
<title>3&#45;&gt;8</title>
<path fill="none" stroke="black" d="M677.85,-207.24C672.18,-207.55 665.96,-207.84 660.23,-208 627.52,-208.89 590.66,-202.37 564.81,-196.55"/>
<polygon fill="black" stroke="black" points="565.78,-193.18 555.24,-194.29 564.17,-199.99 565.78,-193.18"/>
<text text-anchor="middle" x="615.86" y="-210.57" font-family="Times,serif" font-size="14.00">a</text>
</g>
<!-- 5 -->
<g id="node7" class="node">
<title>5</title>
<ellipse fill="none" stroke="black" cx="440.12" cy="-114" rx="20.13" ry="20.13"/>
<ellipse fill="none" stroke="black" cx="440.12" cy="-114" rx="24.13" ry="24.13"/>
<text text-anchor="middle" x="440.12" y="-108.95" font-family="Times,serif" font-size="14.00">b5</text>
</g>
<!-- 4&#45;&gt;5 -->
<g id="edge11" class="edge">
<title>4&#45;&gt;5</title>
<path fill="none" stroke="black" d="M372.54,-92.73C382.21,-95.81 394.45,-99.73 405.79,-103.35"/>
<polygon fill="black" stroke="black" points="404.67,-106.67 415.26,-106.38 406.8,-100 404.67,-106.67"/>
<text text-anchor="middle" x="394.61" y="-103.7" font-family="Times,serif" font-size="14.00">b</text>
</g>
<!-- 5&#45;&gt;6 -->
<g id="edge12" class="edge">
<title>5&#45;&gt;6</title>
<path fill="none" stroke="black" d="M416.62,-120.93C386.9,-130.07 334.55,-146.18 302.04,-156.18"/>
<polygon fill="black" stroke="black" points="301.41,-152.71 292.88,-159 303.47,-159.4 301.41,-152.71"/>
<text text-anchor="middle" x="353.62" y="-149.43" font-family="Times,serif" font-size="14.00">a</text>
</g>
<!-- 5&#45;&gt;7 -->
<g id="edge14" class="edge">
<title>5&#45;&gt;7</title>
<path fill="none" stroke="black" d="M459.65,-99.66C476.81,-87.84 503.54,-73 529.62,-73 529.62,-73 529.62,-73 698.85,-73 733.58,-73 756.43,-110.42 768.62,-138.29"/>
<polygon fill="black" stroke="black" points="765.32,-139.45 772.35,-147.37 771.79,-136.79 765.32,-139.45"/>
<text text-anchor="middle" x="615.86" y="-76.2" font-family="Times,serif" font-size="14.00">b</text>
</g>
<!-- 5&#45;&gt;8 -->
<g id="edge13" class="edge">
<title>5&#45;&gt;8</title>
<path fill="none" stroke="black" d="M459.03,-128.98C471.75,-139.61 489.02,-154.05 503.3,-165.99"/>
<polygon fill="black" stroke="black" points="500.66,-168.35 510.58,-172.08 505.15,-162.98 500.66,-168.35"/>
<text text-anchor="middle" x="485.63" y="-156.42" font-family="Times,serif" font-size="14.00">a</text>
</g>
<!-- 6&#45;&gt;1 -->
<g id="edge16" class="edge">
<title>6&#45;&gt;1</title>
<path fill="none" stroke="black" d="M254.22,-173.53C243.88,-178.67 230.45,-185.34 218.63,-191.21"/>
<polygon fill="black" stroke="black" points="217.1,-188.06 209.7,-195.65 220.22,-194.33 217.1,-188.06"/>
<text text-anchor="middle" x="231.39" y="-189.4" font-family="Times,serif" font-size="14.00">b</text>
</g>
<!-- 6&#45;&gt;4 -->
<g id="edge15" class="edge">
<title>6&#45;&gt;4</title>
<path fill="none" stroke="black" d="M282.69,-148C289.3,-136.98 298.95,-122.81 310,-112.5 314.65,-108.16 320.16,-104.21 325.65,-100.78"/>
<polygon fill="black" stroke="black" points="327.09,-103.98 334,-95.95 323.59,-97.92 327.09,-103.98"/>
<text text-anchor="middle" x="313" y="-115.7" font-family="Times,serif" font-size="14.00">a</text>
</g>
<!-- 7&#45;&gt;6 -->
<g id="edge17" class="edge">
<title>7&#45;&gt;6</title>
<path fill="none" stroke="black" d="M777.18,-147.8C771.75,-108.81 753.81,-27 698.85,-27 352.62,-27 352.62,-27 352.62,-27 303.59,-27 284.46,-93.33 277.33,-134.02"/>
<polygon fill="black" stroke="black" points="273.9,-133.31 275.79,-143.73 280.82,-134.4 273.9,-133.31"/>
<text text-anchor="middle" x="530.62" y="-30.2" font-family="Times,serif" font-size="14.00">a</text>
</g>
<!-- 7&#45;&gt;7 -->
<g id="edge19" class="edge">
<title>7&#45;&gt;7</title>
<path fill="none" stroke="black" d="M772.89,-186.83C771.62,-196.93 774.11,-206.13 780.35,-206.13 784.05,-206.13 786.44,-202.89 787.5,-198.14"/>
<polygon fill="black" stroke="black" points="790.99,-198.44 787.77,-188.35 783.99,-198.25 790.99,-198.44"/>
<text text-anchor="middle" x="780.35" y="-209.33" font-family="Times,serif" font-size="14.00">b</text>
</g>
<!-- 7&#45;&gt;8 -->
<g id="edge18" class="edge">
<title>7&#45;&gt;8</title>
<path fill="none" stroke="black" d="M769.39,-185.3C758.87,-201.64 740.61,-225.08 717.47,-235 667.87,-256.27 647.47,-244.96 596.24,-228 583.2,-223.68 570.08,-216.26 559.09,-208.97"/>
<polygon fill="black" stroke="black" points="561.12,-206.12 550.92,-203.27 557.12,-211.86 561.12,-206.12"/>
<text text-anchor="middle" x="656.85" y="-249.32" font-family="Times,serif" font-size="14.00">a</text>
</g>
<!-- 8&#45;&gt;2 -->
<g id="edge22" class="edge">
<title>8&#45;&gt;2</title>
<path fill="none" stroke="black" d="M553.93,-182.1C563.58,-179.55 575.02,-176.53 585.37,-173.79"/>
<polygon fill="black" stroke="black" points="586.19,-177.2 594.96,-171.26 584.4,-170.43 586.19,-177.2"/>
<text text-anchor="middle" x="575.24" y="-180.2" font-family="Times,serif" font-size="14.00">a</text>
</g>
<!-- 8&#45;&gt;6 -->
<g id="edge20" class="edge">
<title>8&#45;&gt;6</title>
<path fill="none" stroke="black" d="M506.77,-185.95C460.46,-181.79 355.54,-172.37 303.63,-167.71"/>
<polygon fill="black" stroke="black" points="304,-164.23 293.73,-166.83 303.38,-171.21 304,-164.23"/>
<text text-anchor="middle" x="394.61" y="-179.17" font-family="Times,serif" font-size="14.00">a</text>
</g>
<!-- 8&#45;&gt;7 -->
<g id="edge23" class="edge">
<title>8&#45;&gt;7</title>
<path fill="none" stroke="black" d="M547.25,-170.63C559.28,-158.62 577.07,-143.65 596.24,-137 649.24,-118.6 714.78,-139.54 751.34,-154.83"/>
<polygon fill="black" stroke="black" points="749.75,-157.96 760.32,-158.75 752.55,-151.54 749.75,-157.96"/>
<text text-anchor="middle" x="656.85" y="-133.7" font-family="Times,serif" font-size="14.00">b</text>
</g>
<!-- 8&#45;&gt;8 -->
<g id="edge21" class="edge">
<title>8&#45;&gt;8</title>
<path fill="none" stroke="black" d="M522.42,-210.27C521.53,-220.59 524.26,-229.62 530.62,-229.62 534.4,-229.62 536.9,-226.44 538.12,-221.69"/>
<polygon fill="black" stroke="black" points="541.6,-221.97 538.73,-211.78 534.62,-221.54 541.6,-221.97"/>
<text text-anchor="middle" x="530.62" y="-232.82" font-family="Times,serif" font-size="14.00">a</text>
</g>
</g>
</svg>
