<?xml version="1.0" encoding="UTF-8" standalone="no"?>
<!DOCTYPE svg PUBLIC "-//W3C//DTD SVG 1.1//EN"
 "http://www.w3.org/Graphics/SVG/1.1/DTD/svg11.dtd">
<!-- Generated by graphviz version 12.2.1 (20241206.2353)
 -->
<!-- Title: NPDA Pages: 1 -->
<svg width="546pt" height="280pt"
 viewBox="0.00 0.00 546.25 280.22" xmlns="http://www.w3.org/2000/svg" xmlns:xlink="http://www.w3.org/1999/xlink">
<g id="graph0" class="graph" transform="scale(1 1) rotate(0) translate(4 276.22)">
<title>NPDA</title>
<polygon fill="white" stroke="none" points="-4,4 -4,-276.22 542.25,-276.22 542.25,4 -4,4"/>
<!-- start -->
<g id="node1" class="node">
<title>start</title>
</g>
<!-- 0 -->
<g id="node2" class="node">
<title>0</title>
<ellipse fill="none" stroke="black" cx="109" cy="-165.22" rx="18" ry="18"/>
<text text-anchor="middle" x="109" y="-160.17" font-family="Times,serif" font-size="14.00">0</text>
</g>
<!-- start&#45;&gt;0 -->
<g id="edge1" class="edge">
<title>start&#45;&gt;0</title>
<path fill="none" stroke="black" d="M53.75,-165.22C61.85,-165.22 70.85,-165.22 79.16,-165.22"/>
<polygon fill="black" stroke="black" points="79.12,-168.72 89.12,-165.22 79.12,-161.72 79.12,-168.72"/>
</g>
<!-- 1 -->
<g id="node3" class="node">
<title>1</title>
<ellipse fill="none" stroke="black" cx="247" cy="-230.22" rx="18" ry="18"/>
<text text-anchor="middle" x="247" y="-225.17" font-family="Times,serif" font-size="14.00">1</text>
</g>
<!-- 0&#45;&gt;1 -->
<g id="edge2" class="edge">
<title>0&#45;&gt;1</title>
<path fill="none" stroke="black" d="M125.87,-172.8C149,-183.86 192.26,-204.53 220.06,-217.82"/>
<polygon fill="black" stroke="black" points="218.34,-220.88 228.87,-222.03 221.36,-214.56 218.34,-220.88"/>
<text text-anchor="middle" x="178" y="-215.99" font-family="Times,serif" font-size="14.00">a</text>
</g>
<!-- 3 -->
<g id="node5" class="node">
<title>3</title>
<ellipse fill="none" stroke="black" cx="247" cy="-121.22" rx="18" ry="18"/>
<text text-anchor="middle" x="247" y="-116.17" font-family="Times,serif" font-size="14.00">3</text>
</g>
<!-- 0&#45;&gt;3 -->
<g id="edge3" class="edge">
<title>0&#45;&gt;3</title>
<path fill="none" stroke="black" d="M126.68,-159.83C149.64,-152.4 191.27,-138.93 218.78,-130.03"/>
<polygon fill="black" stroke="black" points="219.74,-133.4 228.17,-126.99 217.58,-126.74 219.74,-133.4"/>
<text text-anchor="middle" x="178" y="-156.62" font-family="Times,serif" font-size="14.00">b, X/ABAX</text>
</g>
<!-- 2 -->
<g id="node4" class="node">
<title>2</title>
<ellipse fill="none" stroke="black" cx="389" cy="-250.22" rx="18" ry="18"/>
<ellipse fill="none" stroke="black" cx="389" cy="-250.22" rx="22" ry="22"/>
<text text-anchor="middle" x="389" y="-245.17" font-family="Times,serif" font-size="14.00">2</text>
</g>
<!-- 1&#45;&gt;2 -->
<g id="edge4" class="edge">
<title>1&#45;&gt;2</title>
<path fill="none" stroke="black" d="M265.17,-232.67C287.66,-235.89 327.54,-241.58 355.75,-245.61"/>
<polygon fill="black" stroke="black" points="355.15,-249.06 365.54,-247.01 356.14,-242.13 355.15,-249.06"/>
<text text-anchor="middle" x="316" y="-247.51" font-family="Times,serif" font-size="14.00">b</text>
</g>
<!-- 3&#45;&gt;3 -->
<g id="edge5" class="edge">
<title>3&#45;&gt;3</title>
<path fill="none" stroke="black" d="M235.59,-135.64C231.61,-146.39 235.41,-157.22 247,-157.22 254.42,-157.22 258.65,-152.77 259.69,-146.75"/>
<polygon fill="black" stroke="black" points="263.2,-146.68 258.58,-137.14 256.25,-147.48 263.2,-146.68"/>
<text text-anchor="middle" x="247" y="-160.42" font-family="Times,serif" font-size="14.00">b</text>
</g>
<!-- 4 -->
<g id="node6" class="node">
<title>4</title>
<ellipse fill="none" stroke="black" cx="389" cy="-61.22" rx="18" ry="18"/>
<text text-anchor="middle" x="389" y="-56.17" font-family="Times,serif" font-size="14.00">4</text>
</g>
<!-- 3&#45;&gt;4 -->
<g id="edge6" class="edge">
<title>3&#45;&gt;4</title>
<path fill="none" stroke="black" d="M250.36,-103.25C253.88,-84.51 262.47,-56.04 283,-42.72 307.02,-27.13 340.35,-37.14 362.97,-47.5"/>
<polygon fill="black" stroke="black" points="361.25,-50.55 371.76,-51.83 364.34,-44.27 361.25,-50.55"/>
<text text-anchor="middle" x="316" y="-45.92" font-family="Times,serif" font-size="14.00">a</text>
</g>
<!-- 6 -->
<g id="node8" class="node">
<title>6</title>
<ellipse fill="none" stroke="black" cx="389" cy="-130.22" rx="18" ry="18"/>
<text text-anchor="middle" x="389" y="-125.17" font-family="Times,serif" font-size="14.00">6</text>
</g>
<!-- 3&#45;&gt;6 -->
<g id="edge7" class="edge">
<title>3&#45;&gt;6</title>
<path fill="none" stroke="black" d="M265.21,-120.56C285.35,-120 319.69,-119.71 349,-122.72 352.52,-123.08 356.2,-123.6 359.83,-124.2"/>
<polygon fill="black" stroke="black" points="359.05,-127.61 369.52,-126.01 360.33,-120.73 359.05,-127.61"/>
<text text-anchor="middle" x="316" y="-125.92" font-family="Times,serif" font-size="14.00">a, A/ε</text>
</g>
<!-- 4&#45;&gt;3 -->
<g id="edge8" class="edge">
<title>4&#45;&gt;3</title>
<path fill="none" stroke="black" d="M371.21,-66.23C350.12,-72.79 313.05,-85.16 283,-99.72 279.43,-101.45 275.75,-103.45 272.19,-105.51"/>
<polygon fill="black" stroke="black" points="270.63,-102.36 263.91,-110.55 274.27,-108.34 270.63,-102.36"/>
<text text-anchor="middle" x="316" y="-102.92" font-family="Times,serif" font-size="14.00">b, X/ABAX</text>
</g>
<!-- 5 -->
<g id="node7" class="node">
<title>5</title>
<ellipse fill="none" stroke="black" cx="516.25" cy="-25.22" rx="18" ry="18"/>
<text text-anchor="middle" x="516.25" y="-20.17" font-family="Times,serif" font-size="14.00">5</text>
</g>
<!-- 4&#45;&gt;5 -->
<g id="edge9" class="edge">
<title>4&#45;&gt;5</title>
<path fill="none" stroke="black" d="M406.63,-56.44C427.31,-50.5 462.91,-40.27 487.69,-33.14"/>
<polygon fill="black" stroke="black" points="488.45,-36.57 497.09,-30.44 486.52,-29.84 488.45,-36.57"/>
<text text-anchor="middle" x="452.62" y="-52.78" font-family="Times,serif" font-size="14.00">a</text>
</g>
<!-- 5&#45;&gt;3 -->
<g id="edge10" class="edge">
<title>5&#45;&gt;3</title>
<path fill="none" stroke="black" d="M498.95,-19.58C457.63,-6.41 347.51,21.49 283,-30.22 264.34,-45.18 255.62,-71.34 251.55,-91.78"/>
<polygon fill="black" stroke="black" points="248.11,-91.1 249.9,-101.54 255.01,-92.26 248.11,-91.1"/>
<text text-anchor="middle" x="389" y="-4.46" font-family="Times,serif" font-size="14.00">b</text>
</g>
<!-- 6&#45;&gt;3 -->
<g id="edge11" class="edge">
<title>6&#45;&gt;3</title>
<path fill="none" stroke="black" d="M371.38,-134.88C350.47,-140.02 313.59,-146.62 283,-139.22 279.59,-138.4 276.14,-137.18 272.8,-135.76"/>
<polygon fill="black" stroke="black" points="274.59,-132.73 264.07,-131.43 271.48,-139.01 274.59,-132.73"/>
<text text-anchor="middle" x="316" y="-145.73" font-family="Times,serif" font-size="14.00">ε, A/A</text>
</g>
<!-- 7 -->
<g id="node9" class="node">
<title>7</title>
<ellipse fill="none" stroke="black" cx="516.25" cy="-186.22" rx="18" ry="18"/>
<text text-anchor="middle" x="516.25" y="-181.17" font-family="Times,serif" font-size="14.00">7</text>
</g>
<!-- 6&#45;&gt;7 -->
<g id="edge12" class="edge">
<title>6&#45;&gt;7</title>
<path fill="none" stroke="black" d="M406.59,-135.47C424.23,-141.28 452.78,-151.34 476.25,-162.72 481.23,-165.14 486.41,-167.99 491.3,-170.86"/>
<polygon fill="black" stroke="black" points="489.13,-173.64 499.49,-175.86 492.78,-167.66 489.13,-173.64"/>
<text text-anchor="middle" x="452.62" y="-165.92" font-family="Times,serif" font-size="14.00">a</text>
</g>
<!-- 8 -->
<g id="node10" class="node">
<title>8</title>
<ellipse fill="none" stroke="black" cx="516.25" cy="-121.22" rx="18" ry="18"/>
<ellipse fill="none" stroke="black" cx="516.25" cy="-121.22" rx="22" ry="22"/>
<text text-anchor="middle" x="516.25" y="-116.17" font-family="Times,serif" font-size="14.00">8</text>
</g>
<!-- 6&#45;&gt;8 -->
<g id="edge13" class="edge">
<title>6&#45;&gt;8</title>
<path fill="none" stroke="black" d="M406.99,-126.29C413.79,-124.89 421.73,-123.48 429,-122.72 446.74,-120.87 466.64,-120.42 482.85,-120.47"/>
<polygon fill="black" stroke="black" points="482.37,-123.96 492.41,-120.56 482.44,-116.96 482.37,-123.96"/>
<text text-anchor="middle" x="452.62" y="-125.92" font-family="Times,serif" font-size="14.00">ε, Z0/Z0</text>
</g>
<!-- 7&#45;&gt;3 -->
<g id="edge14" class="edge">
<title>7&#45;&gt;3</title>
<path fill="none" stroke="black" d="M497.93,-188.79C457.52,-193.91 354.94,-201.83 283,-163.22 275.3,-159.09 268.6,-152.49 263.19,-145.73"/>
<polygon fill="black" stroke="black" points="266.21,-143.94 257.52,-137.87 260.53,-148.03 266.21,-143.94"/>
<text text-anchor="middle" x="389" y="-196" font-family="Times,serif" font-size="14.00">a, B/ε</text>
</g>
</g>
</svg>
