<?xml version="1.0" encoding="UTF-8" standalone="no"?>
<!DOCTYPE svg PUBLIC "-//W3C//DTD SVG 1.1//EN"
 "http://www.w3.org/Graphics/SVG/1.1/DTD/svg11.dtd">
<!-- Generated by graphviz version 12.2.1 (20241206.2353)
 -->
<!-- Title: NPDA Pages: 1 -->
<svg width="556pt" height="282pt"
 viewBox="0.00 0.00 556.00 281.77" xmlns="http://www.w3.org/2000/svg" xmlns:xlink="http://www.w3.org/1999/xlink">
<g id="graph0" class="graph" transform="scale(1 1) rotate(0) translate(4 277.77)">
<title>NPDA</title>
<polygon fill="white" stroke="none" points="-4,4 -4,-277.77 552,-277.77 552,4 -4,4"/>
<!-- start -->
<g id="node1" class="node">
<title>start</title>
</g>
<!-- 0 -->
<g id="node2" class="node">
<title>0</title>
<ellipse fill="none" stroke="black" cx="109" cy="-166.77" rx="18" ry="18"/>
<text text-anchor="middle" x="109" y="-161.72" font-family="Times,serif" font-size="14.00">0</text>
</g>
<!-- start&#45;&gt;0 -->
<g id="edge1" class="edge">
<title>start&#45;&gt;0</title>
<path fill="none" stroke="black" d="M53.75,-166.77C61.85,-166.77 70.85,-166.77 79.16,-166.77"/>
<polygon fill="black" stroke="black" points="79.12,-170.27 89.12,-166.77 79.12,-163.27 79.12,-170.27"/>
</g>
<!-- 1 -->
<g id="node3" class="node">
<title>1</title>
<ellipse fill="none" stroke="black" cx="247" cy="-231.77" rx="18" ry="18"/>
<text text-anchor="middle" x="247" y="-226.72" font-family="Times,serif" font-size="14.00">1</text>
</g>
<!-- 0&#45;&gt;1 -->
<g id="edge2" class="edge">
<title>0&#45;&gt;1</title>
<path fill="none" stroke="black" d="M125.87,-174.35C149,-185.41 192.26,-206.08 220.06,-219.37"/>
<polygon fill="black" stroke="black" points="218.34,-222.43 228.87,-223.58 221.36,-216.11 218.34,-222.43"/>
<text text-anchor="middle" x="178" y="-217.53" font-family="Times,serif" font-size="14.00">a</text>
</g>
<!-- 3 -->
<g id="node5" class="node">
<title>3</title>
<ellipse fill="none" stroke="black" cx="247" cy="-122.77" rx="18" ry="18"/>
<text text-anchor="middle" x="247" y="-117.72" font-family="Times,serif" font-size="14.00">3</text>
</g>
<!-- 0&#45;&gt;3 -->
<g id="edge3" class="edge">
<title>0&#45;&gt;3</title>
<path fill="none" stroke="black" d="M126.68,-161.37C149.64,-153.94 191.27,-140.47 218.78,-131.57"/>
<polygon fill="black" stroke="black" points="219.74,-134.94 228.17,-128.54 217.58,-128.28 219.74,-134.94"/>
<text text-anchor="middle" x="178" y="-158.17" font-family="Times,serif" font-size="14.00">b, X/ABAX</text>
</g>
<!-- 2 -->
<g id="node4" class="node">
<title>2</title>
<ellipse fill="none" stroke="black" cx="398.75" cy="-251.77" rx="18" ry="18"/>
<ellipse fill="none" stroke="black" cx="398.75" cy="-251.77" rx="22" ry="22"/>
<text text-anchor="middle" x="398.75" y="-246.72" font-family="Times,serif" font-size="14.00">2</text>
</g>
<!-- 1&#45;&gt;2 -->
<g id="edge4" class="edge">
<title>1&#45;&gt;2</title>
<path fill="none" stroke="black" d="M265.18,-234.06C289.57,-237.32 334.67,-243.34 365.44,-247.45"/>
<polygon fill="black" stroke="black" points="364.57,-250.87 374.95,-248.72 365.5,-243.93 364.57,-250.87"/>
<text text-anchor="middle" x="320.88" y="-249.6" font-family="Times,serif" font-size="14.00">b</text>
</g>
<!-- 3&#45;&gt;3 -->
<g id="edge5" class="edge">
<title>3&#45;&gt;3</title>
<path fill="none" stroke="black" d="M235.59,-137.18C231.61,-147.93 235.41,-158.77 247,-158.77 254.42,-158.77 258.65,-154.32 259.69,-148.3"/>
<polygon fill="black" stroke="black" points="263.2,-148.22 258.58,-138.69 256.25,-149.02 263.2,-148.22"/>
<text text-anchor="middle" x="247" y="-161.97" font-family="Times,serif" font-size="14.00">b</text>
</g>
<!-- 4 -->
<g id="node6" class="node">
<title>4</title>
<ellipse fill="none" stroke="black" cx="398.75" cy="-62.77" rx="18" ry="18"/>
<text text-anchor="middle" x="398.75" y="-57.72" font-family="Times,serif" font-size="14.00">4</text>
</g>
<!-- 3&#45;&gt;4 -->
<g id="edge6" class="edge">
<title>3&#45;&gt;4</title>
<path fill="none" stroke="black" d="M250.36,-104.8C253.88,-86.06 262.47,-57.59 283,-44.27 309.86,-26.83 347.52,-38.12 372.26,-49.22"/>
<polygon fill="black" stroke="black" points="370.74,-52.38 381.27,-53.55 373.77,-46.07 370.74,-52.38"/>
<text text-anchor="middle" x="320.88" y="-47.47" font-family="Times,serif" font-size="14.00">a</text>
</g>
<!-- 6 -->
<g id="node8" class="node">
<title>6</title>
<ellipse fill="none" stroke="black" cx="398.75" cy="-131.77" rx="18" ry="18"/>
<text text-anchor="middle" x="398.75" y="-126.72" font-family="Times,serif" font-size="14.00">6</text>
</g>
<!-- 3&#45;&gt;6 -->
<g id="edge7" class="edge">
<title>3&#45;&gt;6</title>
<path fill="none" stroke="black" d="M265.32,-122.06C287.16,-121.39 325.85,-120.91 358.75,-124.27 362.27,-124.63 365.95,-125.14 369.58,-125.74"/>
<polygon fill="black" stroke="black" points="368.8,-129.16 379.27,-127.55 370.08,-122.27 368.8,-129.16"/>
<text text-anchor="middle" x="320.88" y="-127.47" font-family="Times,serif" font-size="14.00">a, A/ε</text>
</g>
<!-- 4&#45;&gt;3 -->
<g id="edge8" class="edge">
<title>4&#45;&gt;3</title>
<path fill="none" stroke="black" d="M380.95,-67.11C358.18,-73.28 316.5,-85.61 283,-101.27 279.4,-102.95 275.71,-104.92 272.14,-106.97"/>
<polygon fill="black" stroke="black" points="270.59,-103.81 263.87,-112 274.23,-109.79 270.59,-103.81"/>
<text text-anchor="middle" x="320.88" y="-104.47" font-family="Times,serif" font-size="14.00">b, X/ABAAX</text>
</g>
<!-- 5 -->
<g id="node7" class="node">
<title>5</title>
<ellipse fill="none" stroke="black" cx="526" cy="-26.77" rx="18" ry="18"/>
<text text-anchor="middle" x="526" y="-21.72" font-family="Times,serif" font-size="14.00">5</text>
</g>
<!-- 4&#45;&gt;5 -->
<g id="edge9" class="edge">
<title>4&#45;&gt;5</title>
<path fill="none" stroke="black" d="M416.38,-57.99C437.06,-52.04 472.66,-41.81 497.44,-34.69"/>
<polygon fill="black" stroke="black" points="498.2,-38.11 506.84,-31.99 496.27,-31.38 498.2,-38.11"/>
<text text-anchor="middle" x="462.38" y="-54.32" font-family="Times,serif" font-size="14.00">a</text>
</g>
<!-- 5&#45;&gt;3 -->
<g id="edge10" class="edge">
<title>5&#45;&gt;3</title>
<path fill="none" stroke="black" d="M508.71,-21.06C466.32,-7.32 351.13,22.62 283,-30.77 263.8,-45.82 255.13,-72.7 251.21,-93.53"/>
<polygon fill="black" stroke="black" points="247.79,-92.74 249.69,-103.17 254.71,-93.84 247.79,-92.74"/>
<text text-anchor="middle" x="398.75" y="-5" font-family="Times,serif" font-size="14.00">b</text>
</g>
<!-- 6&#45;&gt;3 -->
<g id="edge11" class="edge">
<title>6&#45;&gt;3</title>
<path fill="none" stroke="black" d="M381.15,-136.28C358.6,-141.69 317.18,-149.04 283,-140.77 279.59,-139.94 276.14,-138.72 272.8,-137.3"/>
<polygon fill="black" stroke="black" points="274.59,-134.28 264.07,-132.98 271.48,-140.55 274.59,-134.28"/>
<text text-anchor="middle" x="320.88" y="-147.69" font-family="Times,serif" font-size="14.00">ε, A/ε</text>
</g>
<!-- 7 -->
<g id="node9" class="node">
<title>7</title>
<ellipse fill="none" stroke="black" cx="526" cy="-187.77" rx="18" ry="18"/>
<text text-anchor="middle" x="526" y="-182.72" font-family="Times,serif" font-size="14.00">7</text>
</g>
<!-- 6&#45;&gt;7 -->
<g id="edge12" class="edge">
<title>6&#45;&gt;7</title>
<path fill="none" stroke="black" d="M416.34,-137.01C433.98,-142.83 462.53,-152.89 486,-164.27 490.98,-166.68 496.16,-169.54 501.05,-172.41"/>
<polygon fill="black" stroke="black" points="498.88,-175.19 509.24,-177.4 502.53,-169.21 498.88,-175.19"/>
<text text-anchor="middle" x="462.38" y="-167.47" font-family="Times,serif" font-size="14.00">a</text>
</g>
<!-- 8 -->
<g id="node10" class="node">
<title>8</title>
<ellipse fill="none" stroke="black" cx="526" cy="-122.77" rx="18" ry="18"/>
<ellipse fill="none" stroke="black" cx="526" cy="-122.77" rx="22" ry="22"/>
<text text-anchor="middle" x="526" y="-117.72" font-family="Times,serif" font-size="14.00">8</text>
</g>
<!-- 6&#45;&gt;8 -->
<g id="edge13" class="edge">
<title>6&#45;&gt;8</title>
<path fill="none" stroke="black" d="M416.74,-127.84C423.54,-126.44 431.48,-125.02 438.75,-124.27 456.49,-122.42 476.39,-121.97 492.6,-122.01"/>
<polygon fill="black" stroke="black" points="492.12,-125.51 502.16,-122.1 492.19,-118.51 492.12,-125.51"/>
<text text-anchor="middle" x="462.38" y="-127.47" font-family="Times,serif" font-size="14.00">ε, Z0/Z0</text>
</g>
<!-- 7&#45;&gt;3 -->
<g id="edge14" class="edge">
<title>7&#45;&gt;3</title>
<path fill="none" stroke="black" d="M507.9,-190.4C466.48,-195.9 358.62,-205.03 283,-164.77 275.28,-160.66 268.59,-154.07 263.18,-147.31"/>
<polygon fill="black" stroke="black" points="266.19,-145.51 257.51,-139.45 260.51,-149.61 266.19,-145.51"/>
<text text-anchor="middle" x="398.75" y="-198.38" font-family="Times,serif" font-size="14.00">a, B/ε</text>
</g>
</g>
</svg>
